<!DOCTYPE svg PUBLIC "-//W3C//DTD SVG 1.1//EN" "http://www.w3.org/Graphics/SVG/1.1/DTD/svg11.dtd">
<svg fill="#000000" height="800px" width="800px" version="1.1" id="Capa_1" xmlns="http://www.w3.org/2000/svg" xmlns:xlink="http://www.w3.org/1999/xlink" 
	 viewBox="0 0 53 53" xml:space="preserve">
<path d="M53,30.5h-3v-2c0-0.553-0.448-1-1-1h-6c-0.552,0-1,0.447-1,1v2H23.474C22.11,30.5,21,29.391,21,28.026V12.5h2
	c0.552,0,1-0.447,1-1v-6c0-0.553-0.448-1-1-1h-2v-3H3v3H1c-0.552,0-1,0.447-1,1v6c0,0.553,0.448,1,1,1h2v21.432
	C3,41.965,9.535,48.5,17.568,48.5H42v2c0,0.553,0.448,1,1,1h6c0.552,0,1-0.447,1-1v-2h3V30.5z M2,10.5v-4h1h18h1v4h-1H3H2z M48,49.5
	h-4v-1v-18v-1h4v1v18V49.5z"/>
</svg>