<svg xmlns="http://www.w3.org/2000/svg" xmlns:xlink="http://www.w3.org/1999/xlink" width="0" height="0" style="display:none;"><symbol viewBox="0 0 504.026 504.026" id="ei-pipe-circle">
<g>
	<g>
		<path d="M487.239,193.132h-25.39v-8.393c0-9.258-7.529-16.787-16.787-16.787h-34.035c-8.998,0-16.325,7.327-16.325,16.325v8.57
			c-24.912-1.662-31.517-10.76-33.213-14.915c-2.459-6.035-5.003-11.902-9.107-17.282c-12.993-16.997-31.727-29.226-44.695-36.931
			c-32.206-19.162-74.878-19.229-111.364-0.227c-17.928,9.35-33.943,22.553-45.098,37.158c-4.113,5.38-6.656,11.247-9.115,17.282
			c-1.679,4.121-8.217,13.153-32.785,14.882v-8.536c0-8.998-7.327-16.325-16.334-16.325H58.964c-9.258,0-16.787,7.529-16.787,16.787
			v8.393h-25.39C7.839,193.132,0,200.98,0,209.919v83.934c0,8.939,7.839,16.787,16.787,16.787h25.39v9.308
			c0,8.754,7.118,15.872,15.872,15.872h34.942c9.006,0,16.334-7.327,16.334-16.325v-8.553c24.551,1.737,31.089,10.76,32.768,14.89
			c2.459,6.035,5.003,11.902,9.107,17.282c10.399,13.589,25.482,26.045,44.846,37.007c17.19,9.745,36.461,14.613,55.741,14.613
			c19.271,0,38.543-4.868,55.724-14.613c19.372-10.962,34.464-23.418,44.855-37.007c4.088-5.355,6.648-11.23,9.115-17.29
			c1.679-4.146,8.284-13.253,33.221-14.915v8.586c0,8.998,7.328,16.325,16.325,16.325h34.942c8.754,0,15.88-7.118,15.88-15.872
			v-9.308h25.39c8.947,0,16.787-7.848,16.787-16.787v-83.934C504.026,200.98,496.187,193.132,487.239,193.132z M58.964,319.033
			v-8.393V193.132v-8.393l33.574-0.462l0.025,8.855h-0.235v117.491h0.638l0.025,8.41H58.964z M445.062,193.132V310.64v8.402
			l-33.574,0.453l-0.21-62.565v-63.799h-0.218l-0.034-8.393l34.035,0.025V193.132z"></path>
	</g>
</g>
</symbol><symbol viewBox="0 0 512 512" id="ei-pipe-controller-2">
<g>
	<g>
		<path d="M493.798,332.804h-50.065v-15.932c0-10.035-8.166-18.202-18.202-18.202h-31.863c-10.035,0-18.202,8.166-18.202,18.202
			v15.932h-59.733v-93.867h24.465c10.035,0,18.202-8.166,18.202-18.202v-31.864c0-10.035-8.166-18.202-18.202-18.202h-41.455
			l-26.803-46.899c-1.519-2.662-4.352-4.301-7.407-4.301v-17.067h34.133c1.024,0,2.039-0.188,3.004-0.546l66.816-25.054H435.2
			c14.114,0,25.6-11.486,25.6-25.6c0-14.114-11.486-25.6-25.6-25.6h-68.267c-1.024,0-2.039,0.179-3.004,0.538l-66.816,25.062h-32.58
			V17.062c0-4.719-3.814-8.533-8.533-8.533s-8.533,3.814-8.533,8.533v34.142h-32.58L148.07,26.142
			c-0.964-0.358-1.98-0.538-3.004-0.538H76.8c-14.114,0-25.6,11.486-25.6,25.6c0,14.114,11.486,25.6,25.6,25.6h66.714l66.816,25.054
			c0.964,0.358,1.98,0.546,3.004,0.546h34.133v17.067c-3.055,0-5.888,1.638-7.407,4.301l-26.803,46.899h-41.455
			c-10.035,0-18.202,8.166-18.202,18.202v31.864c0,10.035,8.166,18.202,18.202,18.202h24.465v93.867h-59.733v-15.932
			c0-10.035-8.166-18.202-18.202-18.202H86.468c-10.035,0-18.202,8.166-18.202,18.202v15.932H18.202
			C8.166,332.804,0,340.971,0,351.006v100.13c0,10.035,8.166,18.202,18.202,18.202h50.065v15.932
			c0,10.035,8.166,18.202,18.202,18.202h31.863c10.035,0,18.202-8.166,18.202-18.202v-15.932h238.933v15.932
			c0,10.035,8.166,18.202,18.202,18.202h31.863c10.035,0,18.202-8.166,18.202-18.202v-15.932h50.065
			c10.035,0,18.202-8.166,18.202-18.202v-100.13C512,340.971,503.834,332.804,493.798,332.804z M119.467,341.338v119.467v24.465
			c0,0.623-0.512,1.135-1.135,1.135H86.468c-0.623,0-1.135-0.512-1.135-1.135v-24.465V341.338v-24.465
			c0-0.631,0.512-1.135,1.135-1.135h31.863c0.623,0,1.135,0.503,1.135,1.135V341.338z M252.416,136.538h7.168l19.499,34.133h-46.165
			L252.416,136.538z M171.802,221.871c-0.623,0-1.135-0.512-1.135-1.135v-31.864c0-0.631,0.512-1.135,1.135-1.135h46.404h75.588
			h46.404c0.623,0,1.135,0.503,1.135,1.135v31.864c0,0.623-0.512,1.135-1.135,1.135h-24.465H196.267H171.802z M426.667,341.338
			v119.467v24.465c0,0.623-0.512,1.135-1.135,1.135h-31.863c-0.623,0-1.135-0.512-1.135-1.135v-24.465V341.338v-24.465
			c0-0.631,0.512-1.135,1.135-1.135h31.863c0.623,0,1.135,0.503,1.135,1.135V341.338z"></path>
	</g>
</g>
</symbol><symbol viewBox="0 0 495.897 495.897" id="ei-pipe-controller-3">
<g>
	<g>
		<path d="M479.381,297.41H454.4v-8.258c0-9.109-7.407-16.516-16.516-16.516h-33.486c-8.853,0-16.062,7.209-16.062,16.062v7.441
			c-10.628-2.131-29.101-7.672-44.594-21.851l-7.845-5.88c-13.7-10.281-21.884-26.641-21.884-43.768v-18.069h0.454
			c8.853,0,16.062-7.209,16.062-16.062v-33.486c0-9.109-7.407-16.516-16.516-16.516h-20.356l-30.58-45.874
			c-1.536-2.296-4.113-3.675-6.871-3.675V74.442h33.032c0.991,0,1.974-0.173,2.899-0.52l64.661-24.254h64.57
			c13.659,0,24.774-11.115,24.774-24.774S435.027,0.12,421.368,0.12h-66.065c-0.991,0-1.974,0.182-2.899,0.52l-64.661,24.254
			h-81.086c-4.558,0-8.258,3.691-8.258,8.258v33.032c0,4.567,3.7,8.258,8.258,8.258h33.032v16.516c-2.758,0-5.335,1.379-6.871,3.675
			l-30.58,45.874h-21.256c-8.613,0-15.616,7.011-15.616,15.624v34.378c0,8.853,7.209,16.062,16.062,16.062h0.454v18.069
			c0,17.127-8.184,33.486-21.884,43.768l-8.473,6.408c-15.063,13.824-33.387,19.241-43.966,21.331v-7.449
			c0-8.853-7.209-16.062-16.062-16.062H58.013c-9.109,0-16.516,7.407-16.516,16.516v8.258H16.516C7.713,297.41,0,305.131,0,313.926
			v82.581c0,8.795,7.713,16.516,16.516,16.516h24.981v9.158c0,8.613,7.003,15.616,15.616,15.616h34.387
			c8.853,0,16.062-7.209,16.062-16.062v-8.415c24.336,1.668,30.803,10.587,32.462,14.666c2.42,5.938,4.922,11.71,8.968,17.003
			c10.207,13.362,25.055,25.625,44.115,36.41c16.921,9.579,35.881,14.377,54.842,14.377s37.929-4.798,54.834-14.377
			c19.068-10.785,33.916-23.048,44.123-36.41c4.046-5.293,6.549-11.066,8.968-17.003c1.66-4.08,8.126-12.998,32.462-14.666v8.415
			c0,8.853,7.209,16.062,16.062,16.062h34.387c8.613,0,15.616-7.003,15.616-15.616v-9.158h24.981
			c8.803,0,16.516-7.721,16.516-16.516v-82.581C495.897,305.131,488.184,297.41,479.381,297.41z M58.013,421.281v-8.258V297.41
			v-8.258l33.032-0.454l0.033,9.133h-0.033v115.192h0.421l0.033,8.258H58.013z M244.108,107.475h7.68l22.016,33.032h-51.712
			L244.108,107.475z M181.884,190.055v-33.032h24.774h82.581h24.774l0.454,33.032h-0.454H181.884z M437.884,297.41v115.613v8.266
			l-33.032,0.446l-0.025-8.712h0.025l-0.016-115.15l-0.405-0.025l-0.033-8.696l33.486,0.025V297.41z"></path>
	</g>
</g>
</symbol><symbol viewBox="0 0 512 512" id="ei-pipe-controller-4">
<g>
	<g>
		<path d="M384,230.4h-80.179c-5.137-20.019-16.068-37.419-30.754-50.586v-43.281h15.932c10.035,0,18.202-8.158,18.202-18.193
			V86.468c0-10.035-8.166-18.202-18.202-18.202h-15.932V18.202C273.067,8.166,264.9,0,254.865,0H154.726
			c-10.027,0-18.193,8.166-18.193,18.202v50.065h-15.94c-10.027,0-18.193,8.166-18.193,18.202v31.872
			c0,10.035,8.166,18.193,18.193,18.193h15.94V179.9C115.635,198.656,102.4,225.775,102.4,256c0,30.225,13.235,57.353,34.133,76.109
			v43.358h-15.94c-10.027,0-18.193,8.166-18.193,18.202v31.872c0,10.035,8.166,18.193,18.193,18.193h15.94v50.074
			c0,10.035,8.166,18.193,18.193,18.193h100.139c10.035,0,18.202-8.158,18.202-18.193v-50.074h15.932
			c10.035,0,18.202-8.158,18.202-18.193v-31.872c0-10.035-8.166-18.202-18.202-18.202h-15.932v-43.273
			c14.686-13.167,25.617-30.566,30.754-50.594H384c14.114,0,25.6-11.477,25.6-25.6C409.6,241.886,398.114,230.4,384,230.4z
			 M120.593,119.467c-0.623,0-1.126-0.503-1.126-1.126V86.468c0-0.623,0.503-1.135,1.126-1.135h24.474h119.467h24.465
			c0.623,0,1.135,0.512,1.135,1.135v31.872c0,0.623-0.512,1.126-1.135,1.126h-24.465H145.067H120.593z M288.998,392.533
			c0.623,0,1.135,0.512,1.135,1.135v31.872c0,0.623-0.512,1.126-1.135,1.126h-24.465H145.067h-24.474
			c-0.623,0-1.126-0.503-1.126-1.126v-31.872c0-0.623,0.503-1.135,1.126-1.135h24.474h119.467H288.998z M204.8,298.667
			c13.884,0,26.112-6.767,33.911-17.067h47.445c-5.257,16.811-15.514,31.147-28.86,41.591c-0.973,0.76-1.954,1.519-2.97,2.236
			c-0.87,0.631-1.775,1.229-2.679,1.826c-1.101,0.725-2.219,1.434-3.354,2.099c-0.828,0.503-1.681,0.981-2.551,1.459
			c-1.28,0.7-2.577,1.365-3.9,1.997c-0.751,0.367-1.51,0.734-2.287,1.084c-1.493,0.666-3.012,1.271-4.531,1.852
			c-0.657,0.247-1.306,0.512-1.963,0.742c-1.698,0.589-3.405,1.109-5.129,1.604c-0.563,0.154-1.101,0.333-1.655,0.478
			c-1.835,0.478-3.695,0.862-5.564,1.22c-0.486,0.094-0.964,0.213-1.468,0.299c-1.929,0.333-3.866,0.563-5.82,0.768
			c-0.461,0.043-0.913,0.128-1.382,0.162c-2.398,0.213-4.821,0.316-7.245,0.316c-2.722,0-5.393-0.154-8.038-0.401
			c-1.058-0.102-2.099-0.273-3.14-0.41c-1.57-0.213-3.132-0.427-4.668-0.717c-1.229-0.239-2.458-0.521-3.669-0.811
			c-1.348-0.316-2.679-0.648-4.002-1.032c-1.22-0.35-2.415-0.725-3.618-1.126c-1.348-0.452-2.68-0.947-4.002-1.468
			c-1.075-0.418-2.142-0.836-3.2-1.306c-1.545-0.683-3.063-1.425-4.565-2.202c-0.759-0.384-1.536-0.751-2.287-1.169
			c-2.125-1.178-4.198-2.432-6.212-3.78c-0.102-0.068-0.213-0.128-0.316-0.196c-22.682-15.36-37.615-41.318-37.615-70.716
			c0-29.389,14.933-55.347,37.615-70.707c0.102-0.068,0.213-0.128,0.316-0.196c2.014-1.348,4.087-2.603,6.212-3.78
			c0.751-0.418,1.527-0.785,2.287-1.169c1.502-0.777,3.021-1.519,4.565-2.202c1.058-0.469,2.125-0.887,3.2-1.306
			c1.323-0.521,2.654-1.015,4.002-1.468c1.203-0.41,2.398-0.777,3.618-1.135c1.323-0.375,2.654-0.708,4.002-1.024
			c1.212-0.29,2.441-0.58,3.669-0.811c1.536-0.29,3.098-0.503,4.668-0.717c1.041-0.137,2.082-0.307,3.14-0.41
			c2.645-0.247,5.316-0.41,8.038-0.41c2.423,0,4.847,0.111,7.245,0.324c0.469,0.034,0.922,0.119,1.382,0.162
			c1.954,0.205,3.891,0.435,5.82,0.759c0.503,0.094,0.981,0.213,1.468,0.307c1.869,0.358,3.729,0.742,5.564,1.22
			c0.555,0.145,1.092,0.324,1.655,0.478c1.724,0.486,3.43,1.007,5.129,1.604c0.657,0.23,1.306,0.495,1.963,0.742
			c1.519,0.58,3.038,1.186,4.531,1.852c0.777,0.35,1.536,0.717,2.287,1.075c1.323,0.64,2.62,1.306,3.9,2.005
			c0.87,0.478,1.724,0.956,2.551,1.459c1.135,0.666,2.253,1.374,3.354,2.099c0.905,0.597,1.809,1.195,2.679,1.826
			c1.016,0.717,1.997,1.476,2.97,2.236c13.346,10.445,23.603,24.781,28.86,41.583h-47.445c-7.799-10.3-20.028-17.067-33.911-17.067
			c-23.526,0-42.667,19.149-42.667,42.667C162.133,279.526,181.274,298.667,204.8,298.667z"></path>
	</g>
</g>
</symbol><symbol viewBox="0 0 512 512" id="ei-pipe-controller-6">
<g>
	<g>
		<path d="M409.6,230.4h-54.579c-5.137-20.019-16.068-37.419-30.754-50.586v-43.281h15.932c10.035,0,18.202-8.158,18.202-18.193
			V86.468c0-10.035-8.166-18.202-18.202-18.202h-15.932V18.202C324.267,8.166,316.1,0,306.065,0H205.926
			c-10.027,0-18.193,8.166-18.193,18.202v50.065h-15.94c-10.027,0-18.193,8.166-18.193,18.202v31.872
			c0,10.035,8.166,18.193,18.193,18.193h15.94v43.281c-14.694,13.167-25.617,30.566-30.763,50.586H102.4
			c-14.123,0-25.6,11.486-25.6,25.6c0,14.123,11.477,25.6,25.6,25.6h54.571c5.146,20.028,16.068,37.427,30.763,50.594v43.273h-15.94
			c-10.027,0-18.193,8.166-18.193,18.202v31.872c0,10.035,8.166,18.193,18.193,18.193h15.94v50.074
			c0,10.035,8.166,18.193,18.193,18.193h100.139c10.035,0,18.202-8.158,18.202-18.193v-50.074h15.932
			c10.035,0,18.202-8.158,18.202-18.193v-31.872c0-10.035-8.166-18.202-18.202-18.202h-15.932v-43.273
			c14.686-13.167,25.617-30.566,30.754-50.594H409.6c14.114,0,25.6-11.477,25.6-25.6C435.2,241.886,423.714,230.4,409.6,230.4z
			 M171.793,119.467c-0.623,0-1.126-0.503-1.126-1.126V86.468c0-0.623,0.503-1.135,1.126-1.135h24.474h119.467h24.465
			c0.623,0,1.135,0.512,1.135,1.135v31.872c0,0.623-0.512,1.126-1.135,1.126h-24.465H196.267H171.793z M340.198,392.533
			c0.623,0,1.135,0.512,1.135,1.135v31.872c0,0.623-0.512,1.126-1.135,1.126h-24.465H196.267h-24.474
			c-0.623,0-1.126-0.503-1.126-1.126v-31.872c0-0.623,0.503-1.135,1.126-1.135h24.474h119.467H340.198z M308.497,323.191
			c-0.973,0.76-1.954,1.519-2.97,2.236c-0.87,0.631-1.775,1.229-2.68,1.826c-1.101,0.725-2.219,1.434-3.345,2.099
			c-0.836,0.503-1.69,0.981-2.56,1.459c-1.28,0.7-2.577,1.365-3.9,1.997c-0.751,0.367-1.51,0.734-2.287,1.084
			c-1.493,0.666-3.012,1.271-4.531,1.852c-0.657,0.247-1.306,0.512-1.963,0.742c-1.69,0.589-3.405,1.109-5.129,1.604
			c-0.563,0.154-1.101,0.333-1.655,0.478c-1.835,0.478-3.695,0.862-5.555,1.22c-0.503,0.094-0.973,0.213-1.476,0.299
			c-1.929,0.333-3.866,0.563-5.82,0.768c-0.461,0.043-0.913,0.128-1.382,0.162c-2.398,0.213-4.821,0.316-7.245,0.316
			c-2.432,0-4.855-0.102-7.253-0.316c-0.469-0.034-0.913-0.119-1.382-0.162c-1.954-0.205-3.891-0.435-5.82-0.768
			c-0.486-0.085-0.973-0.205-1.468-0.299c-1.86-0.358-3.721-0.742-5.564-1.22c-0.555-0.145-1.101-0.324-1.647-0.478
			c-1.724-0.495-3.439-1.016-5.129-1.604c-0.666-0.23-1.314-0.495-1.971-0.742c-1.528-0.58-3.038-1.186-4.531-1.852
			c-0.768-0.35-1.519-0.717-2.287-1.084c-1.314-0.631-2.628-1.297-3.908-1.997c-0.862-0.478-1.698-0.956-2.543-1.459
			c-1.135-0.666-2.253-1.374-3.362-2.099c-0.896-0.597-1.792-1.195-2.671-1.826c-1.007-0.717-1.988-1.476-2.97-2.236
			c-13.346-10.445-23.603-24.781-28.86-41.591h47.445c7.799,10.3,20.036,17.067,33.92,17.067c13.884,0,26.112-6.767,33.911-17.067
			h47.445C332.109,298.411,321.843,312.747,308.497,323.191z M289.911,230.4c-7.799-10.3-20.028-17.067-33.911-17.067
			c-13.884,0-26.121,6.767-33.92,17.067h-47.445c5.257-16.802,15.514-31.138,28.86-41.583c0.981-0.759,1.963-1.519,2.97-2.236
			c0.879-0.631,1.775-1.229,2.671-1.826c1.109-0.725,2.227-1.434,3.362-2.099c0.845-0.503,1.681-0.981,2.543-1.459
			c1.28-0.7,2.594-1.365,3.908-2.005c0.768-0.358,1.519-0.725,2.287-1.075c1.493-0.666,3.004-1.271,4.531-1.852
			c0.657-0.247,1.306-0.512,1.971-0.742c1.69-0.597,3.405-1.118,5.129-1.604c0.546-0.154,1.092-0.333,1.647-0.478
			c1.843-0.478,3.703-0.862,5.564-1.22c0.495-0.094,0.981-0.213,1.468-0.307c1.929-0.324,3.866-0.555,5.82-0.759
			c0.469-0.043,0.913-0.128,1.382-0.162c2.398-0.213,4.821-0.324,7.253-0.324c2.423,0,4.847,0.111,7.245,0.324
			c0.469,0.034,0.922,0.119,1.382,0.162c1.954,0.205,3.891,0.435,5.82,0.759c0.503,0.094,0.973,0.213,1.476,0.307
			c1.86,0.358,3.721,0.742,5.555,1.22c0.555,0.145,1.092,0.324,1.655,0.478c1.724,0.486,3.439,1.007,5.129,1.604
			c0.657,0.23,1.306,0.495,1.963,0.742c1.519,0.58,3.038,1.186,4.531,1.852c0.776,0.35,1.536,0.717,2.287,1.075
			c1.323,0.64,2.62,1.306,3.9,2.005c0.87,0.478,1.724,0.956,2.56,1.459c1.126,0.666,2.244,1.374,3.345,2.099
			c0.905,0.597,1.809,1.195,2.68,1.826c1.015,0.717,1.997,1.476,2.97,2.236c13.346,10.445,23.612,24.781,28.86,41.583H289.911z"></path>
	</g>
</g>
</symbol><symbol viewBox="0 0 512 512" id="ei-pipe-controller-7">
<g>
	<g>
		<path d="M493.798,324.267h-50.065v-15.932c0-10.035-8.166-18.202-18.202-18.202h-31.863c-10.035,0-18.202,8.166-18.202,18.202
			v15.932h-43.358c-4.915-5.478-10.394-10.419-16.375-14.737v-70.596h8.533c2.739,0,5.316-1.314,6.929-3.541
			c1.596-2.227,2.039-5.094,1.161-7.697l-17.067-51.2c-1.161-3.482-4.412-5.828-8.09-5.828h-11.793l-22.281-44.578l79.505-57.822
			h14.302c14.114,0,25.6-11.486,25.6-25.6s-11.486-25.6-25.6-25.6H145.067c-14.114,0-25.6,11.486-25.6,25.6s11.486,25.6,25.6,25.6
			h14.302l79.505,57.822l-22.281,44.578H204.8c-3.678,0-6.929,2.347-8.09,5.828l-17.067,51.2c-0.879,2.603-0.435,5.47,1.161,7.697
			c1.613,2.227,4.19,3.541,6.929,3.541h8.533v70.596c-5.982,4.318-11.46,9.259-16.375,14.737h-43.358v-15.932
			c0-10.035-8.166-18.202-18.202-18.202H86.468c-10.035,0-18.202,8.166-18.202,18.202v15.932H18.202
			C8.166,324.267,0,332.433,0,342.468v100.13C0,452.634,8.166,460.8,18.202,460.8h50.065v15.932
			c0,10.035,8.166,18.202,18.202,18.202h31.863c10.035,0,18.202-8.166,18.202-18.202V460.8h43.358
			c18.756,20.89,45.884,34.133,76.109,34.133c30.225,0,57.353-13.244,76.109-34.133h43.358v15.932
			c0,10.035,8.166,18.202,18.202,18.202h31.863c10.035,0,18.202-8.166,18.202-18.202V460.8h50.065
			c10.035,0,18.202-8.166,18.202-18.202v-100.13C512,332.433,503.834,324.267,493.798,324.267z M119.467,332.8v119.467v24.465
			c0,0.623-0.512,1.135-1.135,1.135H86.468c-0.623,0-1.135-0.512-1.135-1.135v-24.465V332.8v-24.465
			c0-0.631,0.512-1.135,1.135-1.135h31.863c0.623,0,1.135,0.503,1.135,1.135V332.8z M154.419,404.864
			c0.12,1.05,0.316,2.082,0.478,3.132c0.478,3.157,1.101,6.272,1.86,9.327c0.256,1.007,0.503,2.005,0.777,3.012
			c1.024,3.601,2.21,7.151,3.601,10.59c0.128,0.324,0.23,0.666,0.367,0.99c1.527,3.669,3.302,7.202,5.231,10.633
			c0.213,0.384,0.367,0.802,0.58,1.186h-30.78v-102.4h30.78c-0.213,0.384-0.367,0.802-0.58,1.178
			c-1.929,3.439-3.703,6.972-5.231,10.641c-0.137,0.324-0.239,0.666-0.367,0.99c-1.391,3.439-2.577,6.98-3.601,10.59
			c-0.273,0.998-0.521,1.997-0.777,3.012c-0.759,3.055-1.382,6.161-1.86,9.318c-0.162,1.05-0.358,2.082-0.478,3.132
			c-0.495,4.053-0.819,8.158-0.819,12.339S153.924,400.819,154.419,404.864z M196.267,401.067c-4.719,0-8.533-3.814-8.533-8.533
			s3.814-8.533,8.533-8.533s8.533,3.814,8.533,8.533S200.986,401.067,196.267,401.067z M264.533,68.267h59.102l-59.102,42.974
			V68.267z M188.365,68.267h59.102v42.974L188.365,68.267z M252.74,136.533h6.519l17.067,34.133h-40.653L252.74,136.533z
			 M219.802,440.806c-3.337,3.328-8.747,3.328-12.075,0c-3.328-3.337-3.328-8.738,0-12.075c3.328-3.328,8.738-3.328,12.075,0
			C223.121,432.068,223.121,437.47,219.802,440.806z M219.802,356.335c-3.337,3.319-8.747,3.319-12.075,0
			c-3.328-3.337-3.328-8.747,0-12.075c3.328-3.336,8.738-3.336,12.075,0C223.121,347.588,223.121,352.998,219.802,356.335z
			 M256,460.8c-4.719,0-8.533-3.814-8.533-8.533s3.814-8.533,8.533-8.533s8.533,3.814,8.533,8.533S260.719,460.8,256,460.8z
			 M256,341.333c-4.719,0-8.533-3.814-8.533-8.533s3.814-8.533,8.533-8.533s8.533,3.814,8.533,8.533S260.719,341.333,256,341.333z
			 M280.294,293.163c-0.973-0.23-1.911-0.529-2.884-0.742c-2.654-0.563-5.35-0.964-8.073-1.314
			c-0.845-0.119-1.681-0.299-2.534-0.393c-3.55-0.375-7.151-0.58-10.803-0.58c-3.652,0-7.253,0.205-10.803,0.58
			c-0.853,0.094-1.681,0.273-2.526,0.384c-2.722,0.358-5.427,0.759-8.081,1.323c-0.973,0.213-1.911,0.503-2.884,0.742
			c-2.5,0.614-4.983,1.263-7.415,2.057c-1.016,0.333-1.997,0.734-3.004,1.092c-2.338,0.853-4.651,1.741-6.903,2.748
			c-0.341,0.145-0.708,0.256-1.05,0.418v-60.544h85.333v60.544c-0.341-0.162-0.708-0.273-1.05-0.418
			c-2.253-1.007-4.557-1.894-6.895-2.739c-1.007-0.367-1.997-0.768-3.021-1.101C285.278,294.426,282.795,293.777,280.294,293.163z
			 M304.273,440.806c-3.328,3.328-8.738,3.328-12.075,0c-3.319-3.337-3.319-8.738,0-12.075c3.337-3.328,8.747-3.328,12.075,0
			C307.601,432.068,307.601,437.47,304.273,440.806z M304.273,356.335c-3.328,3.319-8.738,3.319-12.075,0
			c-3.319-3.337-3.319-8.747,0-12.075c3.337-3.336,8.747-3.336,12.075,0C307.601,347.588,307.601,352.998,304.273,356.335z
			 M315.733,401.067c-4.719,0-8.533-3.814-8.533-8.533s3.814-8.533,8.533-8.533s8.533,3.814,8.533,8.533
			S320.452,401.067,315.733,401.067z M375.467,443.733h-30.78c0.213-0.384,0.367-0.802,0.58-1.186
			c1.929-3.43,3.703-6.963,5.231-10.633c0.145-0.333,0.239-0.674,0.375-1.007c1.391-3.43,2.569-6.972,3.593-10.573
			c0.282-1.007,0.521-2.005,0.776-3.012c0.76-3.055,1.374-6.161,1.86-9.318c0.162-1.05,0.358-2.091,0.478-3.149
			c0.495-4.045,0.819-8.149,0.819-12.322s-0.324-8.277-0.819-12.331c-0.119-1.058-0.316-2.099-0.478-3.149
			c-0.486-3.157-1.101-6.255-1.86-9.31c-0.256-1.016-0.495-2.014-0.776-3.012c-1.024-3.61-2.202-7.142-3.593-10.573
			c-0.136-0.333-0.23-0.674-0.375-1.007c-1.527-3.669-3.302-7.202-5.231-10.641c-0.213-0.375-0.367-0.794-0.58-1.178h30.78V443.733z
			 M426.667,332.8v119.467v24.465c0,0.623-0.512,1.135-1.135,1.135h-31.863c-0.623,0-1.135-0.512-1.135-1.135v-24.465V332.8v-24.465
			c0-0.631,0.512-1.135,1.135-1.135h31.863c0.623,0,1.135,0.503,1.135,1.135V332.8z"></path>
	</g>
</g>
</symbol><symbol viewBox="0 0 512 512" id="ei-pipe-controller">
<g>
	<g>
		<path d="M493.798,285.867h-50.065v-15.932c0-10.044-8.166-18.202-18.202-18.202h-31.863c-10.035,0-18.202,8.158-18.202,18.202
			v15.932h-59.733V192h24.465c10.035,0,18.202-8.166,18.202-18.202v-31.863c0-10.044-8.166-18.202-18.202-18.202H303.94
			l8.533-17.067H358.4c14.114,0,25.6-11.486,25.6-25.6s-11.486-25.6-25.6-25.6H153.6c-14.114,0-25.6,11.486-25.6,25.6
			s11.486,25.6,25.6,25.6h45.926l8.533,17.067h-36.258c-10.035,0-18.202,8.158-18.202,18.202v31.863
			c0,10.035,8.166,18.202,18.202,18.202h24.465v93.867h-59.733v-15.932c0-10.044-8.166-18.202-18.202-18.202H86.468
			c-10.035,0-18.202,8.158-18.202,18.202v15.932H18.202C8.166,285.867,0,294.025,0,304.068v100.13
			C0,414.234,8.166,422.4,18.202,422.4h50.065v15.932c0,10.035,8.166,18.202,18.202,18.202h31.863
			c10.035,0,18.202-8.166,18.202-18.202V422.4h238.933v15.932c0,10.035,8.166,18.202,18.202,18.202h31.863
			c10.035,0,18.202-8.166,18.202-18.202V422.4h50.065c10.035,0,18.202-8.166,18.202-18.202v-100.13
			C512,294.025,503.834,285.867,493.798,285.867z M119.467,294.4v119.467v24.465c0,0.623-0.512,1.135-1.135,1.135H86.468
			c-0.623,0-1.135-0.512-1.135-1.135v-24.465V294.4v-24.465c0-0.631,0.512-1.135,1.135-1.135h31.863
			c0.623,0,1.135,0.503,1.135,1.135V294.4z M293.393,106.667l-8.533,17.067H227.14l-8.533-17.067H293.393z M171.802,174.933
			c-0.623,0-1.135-0.512-1.135-1.135v-31.863c0-0.631,0.512-1.135,1.135-1.135h50.065h68.267h50.065
			c0.623,0,1.135,0.503,1.135,1.135v31.863c0,0.623-0.512,1.135-1.135,1.135h-24.465H196.267H171.802z M426.667,294.4v119.467
			v24.465c0,0.623-0.512,1.135-1.135,1.135h-31.863c-0.623,0-1.135-0.512-1.135-1.135v-24.465V294.4v-24.465
			c0-0.631,0.512-1.135,1.135-1.135h31.863c0.623,0,1.135,0.503,1.135,1.135V294.4z"></path>
	</g>
</g>
</symbol><symbol viewBox="0 0 512 512" id="ei-pipe-controller5">
<g>
	<g>
		<path d="M409.6,119.467c-14.114,0-25.6,11.486-25.6,25.6v102.4h-17.067c0-2.85-1.425-5.513-3.797-7.1l-47.403-31.599v-12.501
			c0-3.678-2.347-6.929-5.837-8.098l-45.363-15.121v-36.514h15.932c10.035,0,18.202-8.158,18.202-18.202V86.468
			c0-10.035-8.166-18.202-18.202-18.202h-15.932V18.202C264.533,8.166,256.367,0,246.332,0h-100.13C136.166,0,128,8.166,128,18.202
			v50.065h-15.932c-10.035,0-18.202,8.166-18.202,18.202v31.863c0,10.044,8.166,18.202,18.202,18.202H128v45.926l-46.481,23.245
			c-2.893,1.442-4.719,4.395-4.719,7.629v85.333c0,3.234,1.826,6.187,4.719,7.637L128,329.54v45.926h-15.932
			c-10.035,0-18.202,8.166-18.202,18.202v31.863c0,10.044,8.166,18.202,18.202,18.202H128v50.065
			c0,10.044,8.166,18.202,18.202,18.202h100.13c10.035,0,18.202-8.158,18.202-18.202v-50.065h15.932
			c10.035,0,18.202-8.158,18.202-18.202v-31.863c0-10.035-8.166-18.202-18.202-18.202h-15.932v-36.514l45.363-15.121
			c3.49-1.161,5.837-4.42,5.837-8.098v-12.501l47.403-31.599c2.372-1.579,3.797-4.241,3.797-7.1H384v102.4
			c0,14.114,11.486,25.6,25.6,25.6c14.114,0,25.6-11.486,25.6-25.6V145.067C435.2,130.953,423.714,119.467,409.6,119.467z
			 M93.867,293.393v-74.786L128,201.54V310.46L93.867,293.393z M280.465,392.533c0.623,0,1.135,0.512,1.135,1.135v31.863
			c0,0.631-0.512,1.135-1.135,1.135H256H136.533h-24.465c-0.623,0-1.135-0.503-1.135-1.135v-31.863c0-0.623,0.512-1.135,1.135-1.135
			h24.465H256H280.465z M256,119.467H136.533h-24.465c-0.623,0-1.135-0.503-1.135-1.135V86.468c0-0.623,0.512-1.135,1.135-1.135
			h24.465H256h24.465c0.623,0,1.135,0.512,1.135,1.135v31.863c0,0.631-0.512,1.135-1.135,1.135H256z M298.667,213.333v85.333v10.914
			l-34.133,11.383V191.036l34.133,11.383V213.333z M349.867,259.968l-34.133,22.758v-53.444l34.133,22.75V259.968z"></path>
	</g>
</g>
</symbol><symbol id="ei-pipe-corner-90"></symbol><symbol viewBox="0 0 512 512" id="ei-pipe-corner-round">
<g>
	<g>
		<path d="M294.4,25.6v-9.003C294.4,7.45,286.95,0,277.803,0h-35.072c-9.148,0-16.597,7.45-16.597,16.597v9.762
			C118.263,34.833,34.295,122.24,30.071,230.4h-9.208c-9.148,0-16.597,7.45-16.597,16.597V281.6c0,9.412,7.236,17.067,16.137,17.067
			h9.463V512h119.467V298.667h8.533c9.088,0,17.067-7.979,17.067-17.067v-34.603c0-9.148-7.45-16.597-16.597-16.597h-8.585
			c3.84-41.557,35.413-76.1,76.382-83.686v7.356c0,9.148,7.45,16.597,16.597,16.597h35.072c9.148,0,16.597-7.45,16.597-16.597
			v-9.003h213.333V25.6H294.4z M157.867,246.997l-0.273,34.603h-8.26H29.867h-8.533l-0.469-34.133l9.003-0.034v0.034h119.467v-0.435
			L157.867,246.997z M277.333,25.6v119.467v8.542l-34.133,0.461l-0.034-9.242h0.034V25.455l-0.444,0.017l-0.026-8.405l34.603-0.469
			V25.6z"></path>
	</g>
</g>
</symbol><symbol viewBox="0 0 504.026 504.026" id="ei-pipe-corner45">
<g>
	<g>
		<path d="M487.239,277.111h-25.39v-8.393c0-9.258-7.529-16.787-16.787-16.787h-34.035c-8.998,0-16.325,7.327-16.325,16.325v8.57
			c-24.92-1.662-31.526-10.76-33.204-14.915h-0.008c-2.468-6.06-5.028-11.935-9.107-17.282
			c-13.001-16.997-31.727-29.218-44.695-36.931c-3.332-1.981-6.832-3.626-10.366-5.204l-89.634-89.634l11.079-11.088
			c6.983-6.983,6.983-18.331,0-25.315L196.6,54.29c-6.975-6.983-18.323-6.992-25.315,0L160.206,65.37l-34.824-34.816
			c-6.992-6.992-18.34-6.983-25.323,0l-69.632,69.64c-6.983,6.983-6.983,18.331,0,25.315l34.816,34.824l-11.079,11.079
			c-6.983,6.983-6.983,18.34,0,25.323l22.159,22.159c3.492,3.492,8.074,5.246,12.666,5.246c4.583,0,9.166-1.754,12.657-5.246
			l11.13-11.13l38.081,37.401c-3.861,5.204-6.362,10.886-8.754,16.745c-1.67,4.13-8.2,13.153-32.776,14.882v-8.536
			c0-8.998-7.327-16.325-16.325-16.325H58.964c-9.258,0-16.787,7.529-16.787,16.787v8.393h-25.39C7.839,277.111,0,284.959,0,293.898
			v83.934c0,8.939,7.839,16.787,16.787,16.787h25.39v9.308c0,8.754,7.118,15.872,15.872,15.872h34.95
			c8.998,0,16.325-7.328,16.325-16.325v-8.553c24.559,1.737,31.089,10.76,32.768,14.898c2.468,6.052,5.028,11.927,9.107,17.274
			c10.399,13.589,25.474,26.053,44.846,37.007c17.19,9.745,36.461,14.613,55.741,14.613c19.271,0,38.543-4.868,55.732-14.613
			c19.364-10.962,34.455-23.418,44.846-37.015c4.096-5.355,6.648-11.23,9.115-17.282c1.679-4.146,8.284-13.253,33.221-14.915v8.586
			c0,8.998,7.328,16.325,16.325,16.325h34.942c8.754,0,15.88-7.118,15.88-15.872v-9.308h25.39c8.947,0,16.787-7.848,16.787-16.787
			v-83.934C504.026,284.959,496.187,277.111,487.239,277.111z M58.964,403.013v-8.393V277.111v-8.393l33.574-0.462l0.034,8.855
			h-0.243v117.491h0.638l0.034,8.41H58.964z M206.898,89.904l-17.014,17.022l-83.095,83.087l-17.014,17.013
			c-0.436,0.436-1.133,0.453-1.586,0l-22.159-22.159c-0.436-0.436-0.436-1.15,0-1.586l17.013-17.014l83.095-83.087l17.013-17.022
			c0.218-0.218,0.504-0.327,0.797-0.327c0.277,0,0.562,0.109,0.781,0.327l22.167,22.167
			C207.335,88.762,207.335,89.476,206.898,89.904z M445.062,277.111v117.508v8.402l-33.574,0.453l-0.21-62.565v-63.799h-0.218
			l-0.034-8.393l34.035,0.025V277.111z"></path>
	</g>
</g>
</symbol><symbol viewBox="0 0 512 512" id="ei-pipe-cross">
<g>
	<g>
		<path d="M493.798,187.733h-50.065v-15.932c0-10.044-8.166-18.202-18.202-18.202h-31.863c-10.035,0-18.202,8.158-18.202,18.202
			v15.932h-51.2v-51.2h15.932c10.035,0,18.202-8.166,18.202-18.202V86.468c0-10.044-8.166-18.202-18.202-18.202h-15.932V18.202
			C324.267,8.158,316.1,0,306.065,0h-100.13c-10.035,0-18.202,8.158-18.202,18.202v50.065h-15.932
			c-10.035,0-18.202,8.158-18.202,18.202v31.863c0,10.035,8.166,18.202,18.202,18.202h15.932v51.2h-51.2v-15.932
			c0-10.044-8.166-18.202-18.202-18.202H86.468c-10.035,0-18.202,8.158-18.202,18.202v15.932H18.202
			C8.166,187.733,0,195.891,0,205.935v100.13c0,10.035,8.166,18.202,18.202,18.202h50.065v15.932
			c0,10.035,8.166,18.202,18.202,18.202h31.863c10.035,0,18.202-8.166,18.202-18.202v-15.932h51.2v51.2h-15.932
			c-10.035,0-18.202,8.158-18.202,18.202v31.863c0,10.035,8.166,18.202,18.202,18.202h15.932v50.065
			c0,10.035,8.166,18.202,18.202,18.202h100.13c10.035,0,18.202-8.166,18.202-18.202v-50.065h15.932
			c10.035,0,18.202-8.166,18.202-18.202v-31.863c0-10.044-8.166-18.202-18.202-18.202h-15.932v-51.2h51.2v15.932
			c0,10.035,8.166,18.202,18.202,18.202h31.863c10.035,0,18.202-8.166,18.202-18.202v-15.932h50.065
			c10.035,0,18.202-8.166,18.202-18.202v-100.13C512,195.891,503.834,187.733,493.798,187.733z M119.467,196.267v119.467v24.465
			c0,0.623-0.512,1.135-1.135,1.135H86.468c-0.623,0-1.135-0.512-1.135-1.135v-24.465V196.267v-24.465
			c0-0.631,0.512-1.135,1.135-1.135h31.863c0.623,0,1.135,0.503,1.135,1.135V196.267z M340.198,392.533
			c0.623,0,1.135,0.503,1.135,1.135v31.863c0,0.623-0.512,1.135-1.135,1.135h-24.465H196.267h-24.465
			c-0.623,0-1.135-0.512-1.135-1.135v-31.863c0-0.631,0.512-1.135,1.135-1.135h24.465h119.467H340.198z M315.733,119.467H196.267
			h-24.465c-0.623,0-1.135-0.512-1.135-1.135V86.468c0-0.631,0.512-1.135,1.135-1.135h24.465h119.467h24.465
			c0.623,0,1.135,0.503,1.135,1.135v31.863c0,0.623-0.512,1.135-1.135,1.135H315.733z M426.667,196.267v119.467v24.465
			c0,0.623-0.512,1.135-1.135,1.135h-31.863c-0.623,0-1.135-0.512-1.135-1.135v-24.465V196.267v-24.465
			c0-0.631,0.512-1.135,1.135-1.135h31.863c0.623,0,1.135,0.503,1.135,1.135V196.267z"></path>
	</g>
</g>
</symbol><symbol viewBox="0 0 512 512" id="ei-pipe-expansion-controller">
<g>
	<g>
		<path d="M490.057,149.943H409.6v37.847v187.62v37.847h80.457c12.12,0,21.943-9.825,21.943-21.943V171.886
			C512,159.767,502.177,149.943,490.057,149.943z"></path>
	</g>
</g>
<g>
	<g>
		<path d="M21.943,149.943C9.826,149.943,0,159.767,0,171.886v219.429c0,12.118,9.826,21.943,21.943,21.943H102.4V375.41V187.79
			v-37.847H21.943z"></path>
	</g>
</g>
<g>
	<g>
		<path d="M277.943,186.514v-43.886h21.943c12.12,0,21.943-9.825,21.943-21.943c0-12.118-9.823-21.943-21.943-21.943H256h-43.886
			c-12.117,0-21.943,9.825-21.943,21.943c0,12.118,9.826,21.943,21.943,21.943h21.943v43.886h-87.771v190.171h219.429V186.514
			H277.943z"></path>
	</g>
</g>
</symbol><symbol viewBox="0 0 512 512" id="ei-pipe-flange">
<g>
	<g>
		<path d="M503.467,204.8h-85.333v-7.398c0-10.044-8.166-18.202-18.202-18.202h-31.863c-0.384,0-0.751,0.094-1.135,0.111v-7.509
			c0-10.044-8.166-18.202-18.202-18.202h-31.863c-0.427,0-0.819,0.094-1.237,0.12c-0.529-9.557-8.414-17.186-18.099-17.186h-31.863
			c-3.558,0-6.861,1.067-9.668,2.842c-2.807-1.775-6.11-2.842-9.668-2.842h-31.863c-9.685,0-17.57,7.629-18.099,17.186
			c-0.418-0.026-0.811-0.12-1.237-0.12h-31.864c-10.035,0-18.202,8.158-18.202,18.202v7.509c-0.384-0.017-0.751-0.111-1.135-0.111
			h-31.863c-10.035,0-18.202,8.158-18.202,18.202v7.398H8.533C3.814,204.8,0,208.623,0,213.333v85.333
			c0,4.71,3.814,8.533,8.533,8.533h85.333v7.398c0,10.035,8.166,18.202,18.202,18.202h31.863c0.384,0,0.751-0.094,1.135-0.119v7.518
			c0,10.035,8.166,18.202,18.202,18.202h31.864c0.427,0,0.819-0.094,1.237-0.128c0.529,9.557,8.414,17.195,18.099,17.195h31.863
			c3.558,0,6.861-1.067,9.668-2.842c2.807,1.775,6.11,2.842,9.668,2.842h31.863c9.685,0,17.57-7.637,18.099-17.195
			c0.418,0.034,0.811,0.128,1.237,0.128h31.863c10.035,0,18.202-8.166,18.202-18.202v-7.518c0.384,0.026,0.751,0.119,1.135,0.119
			h31.863c10.035,0,18.202-8.166,18.202-18.202V307.2h85.333c4.719,0,8.533-3.823,8.533-8.533v-85.333
			C512,208.623,508.186,204.8,503.467,204.8z M145.067,314.598c0,0.623-0.512,1.135-1.135,1.135h-31.863
			c-0.623,0-1.135-0.512-1.135-1.135v-15.932v-85.333v-15.932c0-0.631,0.512-1.135,1.135-1.135h31.863
			c0.623,0,1.135,0.503,1.135,1.135V314.598z M247.467,357.265c0,0.623-0.512,1.135-1.135,1.135h-31.863
			c-0.623,0-1.135-0.512-1.135-1.135v-17.067V171.802v-17.067c0-0.631,0.512-1.135,1.135-1.135h31.863
			c0.623,0,1.135,0.503,1.135,1.135V357.265z M298.667,171.802v168.397v17.067c0,0.623-0.512,1.135-1.135,1.135h-31.863
			c-0.623,0-1.135-0.512-1.135-1.135v-202.53c0-0.631,0.512-1.135,1.135-1.135h31.863c0.623,0,1.135,0.503,1.135,1.135V171.802z
			 M401.067,213.333v85.333v15.932c0,0.623-0.512,1.135-1.135,1.135h-31.863c-0.623,0-1.135-0.512-1.135-1.135V197.402
			c0-0.631,0.512-1.135,1.135-1.135h31.863c0.623,0,1.135,0.503,1.135,1.135V213.333z"></path>
	</g>
</g>
</symbol><symbol viewBox="0 0 512 512" id="ei-pipe-reduction">
<g>
	<g>
		<path d="M366.933,375.578v-51.311c0-36.378-5.248-67.447-15.59-92.348c-11.981-28.834-18.167-60.928-18.483-95.386h7.339
			c10.035,0,18.202-8.166,18.202-18.202V86.468c0-10.044-8.166-18.202-18.202-18.202h-15.932V18.202
			C324.267,8.158,316.1,0,306.065,0h-100.13c-10.035,0-18.202,8.158-18.202,18.202v50.065h-15.932
			c-10.035,0-18.202,8.158-18.202,18.202v31.863c0,10.035,8.166,18.202,18.202,18.202h7.339
			c-0.316,34.458-6.502,66.552-18.483,95.386c-10.342,24.9-15.59,55.97-15.59,92.348v51.311
			c-9.498,0.597-17.067,8.439-17.067,18.091v31.863c0,10.035,8.166,18.202,18.202,18.202h24.465v50.065
			c0,10.035,8.166,18.202,18.202,18.202h134.263c10.035,0,18.202-8.166,18.202-18.202v-50.065h24.465
			c10.035,0,18.202-8.166,18.202-18.202v-31.863C384,384.017,376.431,376.175,366.933,375.578z M171.802,119.467
			c-0.623,0-1.135-0.512-1.135-1.135V86.468c0-0.631,0.512-1.135,1.135-1.135h15.932h136.533h15.932
			c0.623,0,1.135,0.503,1.135,1.135v31.863c0,0.623-0.512,1.135-1.135,1.135H332.8H179.2H171.802z M366.933,425.532
			c0,0.623-0.512,1.135-1.135,1.135h-24.465H170.667h-24.465c-0.623,0-1.135-0.512-1.135-1.135v-31.863
			c0-0.631,0.512-1.135,1.135-1.135h219.597c0.623,0,1.135,0.503,1.135,1.135V425.532z"></path>
	</g>
</g>
</symbol><symbol viewBox="0 0 512 512" id="ei-pipe-rounded-180-end">
<g>
	<g>
		<path d="M485.265,213.333h-15.932v-50.065c0-10.035-8.166-18.202-18.202-18.202h-100.13c-10.035,0-18.202,8.166-18.202,18.202
			v50.065h-15.932c-10.035,0-18.202,8.166-18.202,18.202v31.864c0,10.035,8.166,18.202,18.202,18.202H332.8v17.067
			c0,42.351-34.458,76.8-76.8,76.8s-76.8-34.449-76.8-76.8V136.533h15.932c10.035,0,18.202-8.166,18.202-18.202V86.468
			c0-10.035-8.166-18.202-18.202-18.202H179.2V18.202C179.2,8.166,171.034,0,160.998,0H60.868C50.833,0,42.667,8.166,42.667,18.202
			v50.065H26.735c-10.035,0-18.202,8.166-18.202,18.202v31.863c0,10.035,8.166,18.202,18.202,18.202h15.932v162.133
			C42.667,416.299,138.368,512,256,512s213.333-95.701,213.333-213.333V281.6h15.932c10.035,0,18.202-8.166,18.202-18.202v-31.864
			C503.467,221.5,495.3,213.333,485.265,213.333z M51.2,119.467H26.735c-0.623,0-1.135-0.512-1.135-1.135V86.468
			c0-0.631,0.512-1.135,1.135-1.135H51.2h119.467h24.465c0.623,0,1.135,0.503,1.135,1.135v31.863c0,0.623-0.512,1.135-1.135,1.135
			h-24.465H51.2z M486.4,263.398c0,0.623-0.512,1.135-1.135,1.135H460.8H341.333h-24.465c-0.623,0-1.135-0.512-1.135-1.135v-31.864
			c0-0.631,0.512-1.135,1.135-1.135h24.465H460.8h24.465c0.623,0,1.135,0.503,1.135,1.135V263.398z"></path>
	</g>
</g>
</symbol><symbol viewBox="0 0 512 512" id="ei-pipe-rounded-180">
<g>
	<g>
		<path d="M485.265,68.267h-15.932V18.202C469.333,8.166,461.167,0,451.132,0h-100.13C340.966,0,332.8,8.166,332.8,18.202v50.065
			h-15.932c-10.035,0-18.202,8.166-18.202,18.202v31.863c0,10.035,8.166,18.202,18.202,18.202H332.8v162.133
			c0,42.351-34.458,76.8-76.8,76.8s-76.8-34.449-76.8-76.8V136.533h15.932c10.035,0,18.202-8.166,18.202-18.202V86.468
			c0-10.035-8.166-18.202-18.202-18.202H179.2V18.202C179.2,8.166,171.034,0,160.998,0H60.868C50.833,0,42.667,8.166,42.667,18.202
			v50.065H26.735c-10.035,0-18.202,8.166-18.202,18.202v31.863c0,10.035,8.166,18.202,18.202,18.202h15.932v162.133
			C42.667,416.299,138.368,512,256,512s213.333-95.701,213.333-213.333V136.533h15.932c10.035,0,18.202-8.166,18.202-18.202V86.468
			C503.467,76.433,495.3,68.267,485.265,68.267z M51.2,119.467H26.735c-0.623,0-1.135-0.512-1.135-1.135V86.468
			c0-0.631,0.512-1.135,1.135-1.135H51.2h119.467h24.465c0.623,0,1.135,0.503,1.135,1.135v31.863c0,0.623-0.512,1.135-1.135,1.135
			h-24.465H51.2z M486.4,118.332c0,0.623-0.512,1.135-1.135,1.135H460.8H341.333h-24.465c-0.623,0-1.135-0.512-1.135-1.135V86.468
			c0-0.631,0.512-1.135,1.135-1.135h24.465H460.8h24.465c0.623,0,1.135,0.503,1.135,1.135V118.332z"></path>
	</g>
</g>
</symbol><symbol viewBox="0 0 512 512" id="ei-pipe-rounded-2">
<g>
	<g>
		<path d="M442.598,392.533h-15.932V358.4c0-94.114-76.561-170.667-170.667-170.667c-18.825,0-34.133-15.309-34.133-34.133v-34.133
			h15.932c10.035,0,18.202-8.166,18.202-18.202V69.402c0-10.035-8.166-18.202-18.202-18.202h-15.932V18.202
			C221.867,8.166,213.7,0,203.665,0h-100.13C93.5,0,85.333,8.166,85.333,18.202V51.2H69.402C59.366,51.2,51.2,59.366,51.2,69.402
			v31.863c0,10.035,8.166,18.202,18.202,18.202h15.932V153.6c0,94.106,76.561,170.667,170.667,170.667
			c18.825,0,34.133,15.309,34.133,34.133v34.133h-15.932c-10.035,0-18.202,8.166-18.202,18.202v31.863
			c0,10.035,8.166,18.202,18.202,18.202h15.932v32.998c0,10.035,8.166,18.202,18.202,18.202h100.13
			c10.035,0,18.202-8.166,18.202-18.202V460.8h15.932c10.035,0,18.202-8.166,18.202-18.202v-31.863
			C460.8,400.7,452.634,392.533,442.598,392.533z M93.867,102.4H69.402c-0.623,0-1.135-0.512-1.135-1.135V69.402
			c0-0.631,0.512-1.135,1.135-1.135h24.465h119.467h24.465c0.623,0,1.135,0.503,1.135,1.135v31.863c0,0.623-0.512,1.135-1.135,1.135
			h-24.465H93.867z M443.733,442.598c0,0.623-0.512,1.135-1.135,1.135h-24.465H298.667h-24.465c-0.623,0-1.135-0.512-1.135-1.135
			v-31.863c0-0.631,0.512-1.135,1.135-1.135h24.465h119.467h24.465c0.623,0,1.135,0.504,1.135,1.135V442.598z"></path>
	</g>
</g>
</symbol><symbol viewBox="0 0 512 512" id="ei-pipe-rounded-controller-180">
<g>
	<g>
		<path d="M494.933,426.667V290.133c0-37.547-30.72-68.267-68.267-68.267H304.64l-15.36-45.227c-0.853-3.413-4.267-5.973-7.68-5.973
			h-3.413l-23.04-46.08c-1.707-3.413-4.267-5.12-7.68-5.12v-25.6H281.6c0.853,0,1.707,0,3.413-0.853l66.56-24.747H384
			c14.507,0,25.6-11.093,25.6-25.6c0-14.507-11.093-25.6-25.6-25.6h-34.133c-0.853,0-1.707,0-3.413,0.853l-66.56,24.747h-40.96
			h-40.96l-66.56-24.747c-1.707-0.853-2.56-0.853-3.413-0.853H93.867c-6.827,0-13.653,2.56-17.92,7.68
			c-5.12,4.267-7.68,11.093-7.68,17.92c0,14.507,11.093,25.6,25.6,25.6h32.427l66.56,24.747c1.707,0.853,2.56,0.853,3.413,0.853
			H230.4v25.6c-3.413,0-5.973,1.707-7.68,5.12l-23.04,46.08h-3.413c-3.413,0-6.827,2.56-7.68,5.973l-15.36,45.227H85.333
			c-37.547,0-68.267,30.72-68.267,68.267v136.533H0v68.267h128v-68.267h-17.067V332.8c0-14.507,11.093-25.6,25.6-25.6h230.4
			c20.48,0,34.133,10.24,34.133,25.6v93.867H384v68.267h128v-68.267H494.933z M110.933,477.867H17.067v-34.133h93.867V477.867z
			 M191.147,221.867l11.093-34.133h2.56h68.267h2.56l11.093,34.133H191.147z M494.933,477.867h-93.867v-34.133h93.867V477.867z"></path>
	</g>
</g>
</symbol><symbol viewBox="0 0 512.898 512.898" id="ei-pipe-rounded-controller-90-1">
<g>
	<g>
		<path d="M494.933,251.958h-9.881C480.561,137.881,391.635,46.26,278.456,37.277V9.432c0-5.39-3.593-8.982-8.982-8.982h-71.86
			c-5.389,0-8.982,3.593-8.982,8.982v17.965h-72.758l-8.084-21.558c-1.797-3.593-5.389-5.389-8.982-5.389h-71.86
			c-3.593,0-7.186,1.797-8.084,5.389L0.898,50.751C0,51.649,0,53.446,0,54.344v8.982v71.86v8.982c0,0.898,0,2.695,0.898,3.593
			l17.965,44.912c0.898,3.593,4.491,5.389,8.084,5.389h71.86c3.593,0,7.186-1.796,8.084-5.389l8.084-21.558h73.656v17.965
			c0,5.389,3.593,8.982,8.982,8.982h71.86c5.389,0,8.982-3.593,8.982-8.982V163.93c43.116,8.084,76.351,44.014,80.842,88.028h-8.982
			c-9.881,0-17.067,8.084-17.067,17.067v36.828c0,9.881,8.084,17.965,17.965,17.965h8.982v188.632h125.754V323.818h9.881
			c8.982,0,17.067-7.186,17.067-17.067v-37.726C512,260.042,503.916,251.958,494.933,251.958z M33.235,18.414h59.284l8.084,21.558
			l6.288,14.372H18.863L33.235,18.414z M101.502,158.54l-8.982,21.558H33.235l-14.372-35.93h88.028L101.502,158.54z
			 M107.789,126.204H17.965V72.309h89.825V126.204z M260.491,36.379v125.754v17.965h-53.895v-17.965V36.379V18.414h53.895V36.379z
			 M494.035,305.853h-8.982H359.298h-8.982l-0.898-35.93h9.881h125.754v-0.898h8.982V305.853z"></path>
	</g>
</g>
</symbol><symbol viewBox="0 0 512 512" id="ei-pipe-rounded-controller-90-2">
<g>
	<g>
		<path d="M493.798,128h-50.065v-7.398c0-10.044-8.166-18.202-18.202-18.202h-31.863c-10.035,0-18.202,8.158-18.202,18.202V128
			H307.2V76.8c0-4.71-3.814-8.533-8.533-8.533h-3.26L303.94,51.2h45.926c14.114,0,25.6-11.486,25.6-25.6S363.981,0,349.867,0h-204.8
			c-14.114,0-25.6,11.486-25.6,25.6s11.486,25.6,25.6,25.6h45.926l8.533,17.067h-3.26c-4.719,0-8.533,3.823-8.533,8.533v69.103
			C95.411,182.434,29.261,271.121,25.813,375.467h-7.612C8.166,375.467,0,383.625,0,393.668v31.863
			c0,10.035,8.166,18.202,18.202,18.202H25.6v50.065C25.6,503.834,33.766,512,43.802,512h117.197
			c10.035,0,18.202-8.166,18.202-18.202v-50.065h7.398c10.035,0,18.202-8.166,18.202-18.202v-31.863
			c0-10.044-8.166-18.202-18.202-18.202h-6.963c4.361-52.48,48.384-93.867,101.965-93.867h93.867v7.398
			c0,10.035,8.166,18.202,18.202,18.202h31.863c10.035,0,18.202-8.166,18.202-18.202V281.6h50.065
			c10.035,0,18.202-8.166,18.202-18.202V146.202C512,136.158,503.834,128,493.798,128z M186.598,392.533
			c0.623,0,1.135,0.503,1.135,1.135v31.863c0,0.623-0.512,1.135-1.135,1.135H179.2H25.6h-7.398c-0.623,0-1.135-0.512-1.135-1.135
			v-31.863c0-0.631,0.512-1.135,1.135-1.135H25.6h153.6H186.598z M284.86,51.2l-8.533,17.067h-57.719L210.074,51.2H284.86z
			 M290.133,128H281.6c-5.862,0-11.648,0.273-17.408,0.657c-1.459,0.102-2.91,0.205-4.361,0.333
			c-5.777,0.486-11.503,1.092-17.169,1.963h-0.009c-5.768,0.888-11.443,2.031-17.075,3.294c-1.28,0.29-2.56,0.58-3.84,0.887
			c-5.658,1.365-11.264,2.867-16.777,4.591c-0.051,0.017-0.111,0.034-0.162,0.051V85.333h8.533H281.6h8.533V128z M426.667,128v153.6
			v7.398c0,0.623-0.512,1.135-1.135,1.135h-31.863c-0.623,0-1.135-0.512-1.135-1.135V281.6V128v-7.398
			c0-0.631,0.512-1.135,1.135-1.135h31.863c0.623,0,1.135,0.503,1.135,1.135V128z"></path>
	</g>
</g>
</symbol><symbol viewBox="0 0 512 512" id="ei-pipe-rounded-controller">
<g>
	<g>
		<g>
			<path d="M485.265,230.4h-10.018l-16.375-43.665c24.627-16.973,41.557-44.356,44.16-75.802h-33.698
				c-4.719,0-8.533-3.814-8.533-8.533s3.814-8.533,8.533-8.533h33.698C498.671,41.378,454.647,0,401.067,0
				c-53.581,0-97.604,41.378-101.965,93.867H332.8c4.719,0,8.533,3.814,8.533,8.533s-3.814,8.533-8.533,8.533h-33.698
				c2.603,31.445,19.533,58.829,44.16,75.802L326.886,230.4h-10.018c-10.035,0-18.202,8.166-18.202,18.202v31.863
				c0,10.035,8.166,18.202,18.202,18.202H332.8c0,42.351-34.449,76.8-76.8,76.8s-76.8-34.449-76.8-76.8V136.533h15.932
				c10.035,0,18.202-8.166,18.202-18.202V86.468c0-10.035-8.166-18.202-18.202-18.202H179.2V18.202C179.2,8.166,171.034,0,160.998,0
				H60.868C50.833,0,42.667,8.166,42.667,18.202v50.065H26.735c-10.035,0-18.202,8.166-18.202,18.202v31.863
				c0,10.035,8.166,18.202,18.202,18.202h15.932v162.133C42.667,416.299,138.368,512,256,512s213.333-95.701,213.333-213.333h15.932
				c10.035,0,18.202-8.166,18.202-18.202v-31.863C503.467,238.566,495.3,230.4,485.265,230.4z M51.2,119.467H26.735
				c-0.623,0-1.135-0.512-1.135-1.135V86.468c0-0.631,0.512-1.135,1.135-1.135H51.2h119.467h24.465c0.623,0,1.135,0.503,1.135,1.135
				v31.863c0,0.623-0.512,1.135-1.135,1.135h-24.465H51.2z M392.533,78.37V51.2c0-4.719,3.814-8.533,8.533-8.533
				c4.719,0,8.533,3.814,8.533,8.533v27.17c9.907,3.533,17.067,12.919,17.067,24.03c0,14.114-11.486,25.6-25.6,25.6
				c-14.114,0-25.6-11.486-25.6-25.6C375.467,91.29,382.626,81.903,392.533,78.37z M409.6,170.667v16.529
				c-5.683,0.486-11.383,0.486-17.067,0v-16.529c0-4.719,3.814-8.533,8.533-8.533C405.786,162.133,409.6,165.948,409.6,170.667z
				 M357.794,196.591c10.692,4.198,21.879,6.741,33.178,7.706c3.319,0.324,6.69,0.503,10.095,0.503
				c-0.077,0-0.145-0.043-0.213-0.043h0.427c-0.068,0-0.137,0.043-0.213,0.043c3.405,0,6.776-0.179,10.095-0.503
				c11.298-0.964,22.485-3.507,33.178-7.706l12.68,33.809H345.114L357.794,196.591z M486.4,280.465c0,0.623-0.512,1.135-1.135,1.135
				H460.8H341.333h-24.465c-0.623,0-1.135-0.512-1.135-1.135v-31.863c0-0.631,0.512-1.135,1.135-1.135H332.8h136.533h15.932
				c0.623,0,1.135,0.503,1.135,1.135V280.465z"></path>
			<circle cx="401.067" cy="102.398" r="8.533"></circle>
		</g>
	</g>
</g>
</symbol><symbol viewBox="0 0 512 512" id="ei-pipe-rounded">
<g>
	<g>
		<path d="M495.864,42.889H486.4V17.067C486.4,7.979,478.421,0,469.333,0H384c-9.088,0-17.067,7.979-17.067,17.067v25.822H358.4
			c-9.088,0-17.067,7.97-17.067,17.067v34.594c0,9.156,7.45,16.606,16.597,16.606h8.593c-3.849,41.557-35.422,76.1-76.39,83.678
			v-7.561c0-9.156-7.45-16.606-16.597-16.606h-35.072c-9.148,0-16.597,7.45-16.597,16.606v9.754
			c-107.878,8.482-191.838,95.889-196.062,204.041h-9.207C7.45,401.067,0,408.516,0,417.673v34.594
			c0,9.412,7.236,17.067,16.137,17.067H25.6v26.069c0,9.156,7.45,16.597,16.597,16.597h86.272c9.148,0,16.597-7.441,16.597-16.597
			v-26.069h8.533c9.088,0,17.067-7.97,17.067-17.067v-34.594c0-9.156-7.45-16.606-16.597-16.606h-8.593
			c3.849-41.557,35.422-76.092,76.39-83.678v7.347c0,9.156,7.45,16.597,16.597,16.597h35.072c9.148,0,16.597-7.441,16.597-16.597
			v-9.54c107.878-8.482,191.838-95.898,196.062-204.041h9.207c9.148,0,16.597-7.45,16.597-16.606V59.955
			C512,50.543,504.764,42.889,495.864,42.889z M153.6,417.673l-0.282,34.594h-8.252H25.6h-8.533l-0.469-34.133l9.003-0.026v0.026
			h119.467v-0.435L153.6,417.673z M273.067,196.727v119.364v8.183l-34.133,0.461l-0.034-9.242l0.034-0.009V196.13l-0.435,0.017
			l-0.034-8.414l34.603-0.461V196.727z M486.4,94.114v-0.026H366.933v0.427l-8.533,0.034l0.273-34.594h8.26H486.4h8.533
			l0.469,34.133L486.4,94.114z"></path>
	</g>
</g>
</symbol><symbol viewBox="0 0 512 512" id="ei-pipe-split-rounded">
<g>
	<g>
		<path d="M493.798,51.2h-15.932V18.202C477.867,8.166,469.7,0,459.665,0h-100.13c-10.035,0-18.202,8.166-18.202,18.202V51.2
			h-15.932c-10.035,0-18.202,8.166-18.202,18.202v31.863c0,10.035,8.166,18.202,18.202,18.202h15.497
			c-4.292,43.059-40.721,76.8-84.898,76.8s-80.606-33.741-84.898-76.8h15.497c10.035,0,18.202-8.166,18.202-18.202V69.402
			c0-10.035-8.166-18.202-18.202-18.202h-15.932V18.202C170.667,8.166,162.5,0,152.465,0H52.335C42.3,0,34.133,8.166,34.133,18.202
			V51.2H18.202C8.166,51.2,0,59.366,0,69.402v31.863c0,10.035,8.166,18.202,18.202,18.202h16.282
			c3.618,92.279,65.212,173.978,153.25,202.522v70.545h-15.932c-10.035,0-18.202,8.166-18.202,18.202v31.863
			c0,10.035,8.166,18.202,18.202,18.202h15.932v32.998c0,10.035,8.166,18.202,18.202,18.202h100.13
			c10.035,0,18.202-8.166,18.202-18.202V460.8h15.932c10.035,0,18.202-8.166,18.202-18.202v-31.863
			c0-10.035-8.166-18.202-18.202-18.202h-15.932v-70.545c88.038-28.544,149.632-110.242,153.25-202.522h16.282
			c10.035,0,18.202-8.166,18.202-18.202V69.402C512,59.366,503.834,51.2,493.798,51.2z M42.667,102.4H18.202
			c-0.623,0-1.135-0.512-1.135-1.135V69.402c0-0.631,0.512-1.135,1.135-1.135h24.465h119.467h24.465
			c0.623,0,1.135,0.503,1.135,1.135v31.863c0,0.623-0.512,1.135-1.135,1.135h-24.465H42.667z M340.198,409.6
			c0.623,0,1.135,0.504,1.135,1.135v31.863c0,0.623-0.512,1.135-1.135,1.135h-24.465H196.267h-24.465
			c-0.623,0-1.135-0.512-1.135-1.135v-31.863c0-0.631,0.512-1.135,1.135-1.135h24.465h119.467H340.198z M494.933,101.265
			c0,0.623-0.512,1.135-1.135,1.135h-24.465H349.867h-24.465c-0.623,0-1.135-0.512-1.135-1.135V69.402
			c0-0.631,0.512-1.135,1.135-1.135h24.465h119.467h24.465c0.623,0,1.135,0.503,1.135,1.135V101.265z"></path>
	</g>
</g>
</symbol><symbol viewBox="0 0 511.488 511.488" id="ei-pipe-split">
<g>
	<g>
		<path d="M511.488,85.977c0-8.414-3.285-16.333-9.242-22.281l-51.959-51.977C437.982-0.551,417.988-0.56,405.7,11.728
			l-25.975,25.984l-11.273-11.281c-7.1-7.083-18.654-7.083-25.737,0.008l-22.528,22.537c-7.1,7.1-7.1,18.645,0,25.737l11.042,11.042
			l-75.486,70.238l-75.486-70.238L191.3,74.713c7.1-7.091,7.1-18.637,0-25.737l-22.528-22.537c-7.083-7.083-18.645-7.1-25.745,0
			l-11.264,11.273l-25.975-25.993C93.483-0.551,73.489-0.56,61.201,11.728L9.242,63.687C3.285,69.644,0,77.563,0,85.977
			c0,8.422,3.285,16.341,9.242,22.298l25.975,25.975l-11.264,11.264c-7.091,7.1-7.091,18.645,0,25.745l22.537,22.528
			c3.55,3.55,8.201,5.325,12.868,5.325c4.659,0,9.318-1.775,12.868-5.325l11.614-11.622l103.637,91.716v98.56h-15.932
			c-10.035,0-18.202,8.166-18.202,18.202v31.863c0,10.044,8.166,18.202,18.202,18.202h15.932v50.065
			c0,10.044,8.166,18.202,18.202,18.202h100.13c10.035,0,18.202-8.158,18.202-18.202v-50.065h15.932
			c10.035,0,18.202-8.158,18.202-18.202v-31.863c0-10.035-8.166-18.202-18.202-18.202h-15.932v-98.56l103.637-91.716l11.614,11.622
			c3.55,3.55,8.209,5.325,12.877,5.325c4.659,0,9.31-1.775,12.86-5.325l22.537-22.528c7.091-7.1,7.091-18.645,0-25.745
			l-11.264-11.264l25.976-25.975C508.203,102.318,511.488,94.399,511.488,85.977z M179.234,62.646l-17.297,17.297l-84.48,84.48
			L60.16,181.721c-0.452,0.444-1.161,0.435-1.604,0l-22.537-22.528c-0.444-0.444-0.444-1.169,0-1.604l17.297-17.306l84.48-84.471
			l17.289-17.297c0.222-0.222,0.529-0.333,0.819-0.333c0.29,0,0.58,0.111,0.802,0.324l22.528,22.537
			C179.678,61.486,179.678,62.203,179.234,62.646z M339.942,389.507c0.623,0,1.135,0.512,1.135,1.135v31.863
			c0,0.631-0.512,1.135-1.135,1.135h-24.465H196.011h-24.465c-0.623,0-1.135-0.503-1.135-1.135v-31.863
			c0-0.623,0.512-1.135,1.135-1.135h24.465h119.467H339.942z M475.469,159.193l-22.537,22.528c-0.444,0.444-1.152,0.435-1.604,0
			l-17.297-17.297l-84.48-84.48l-17.297-17.297c-0.444-0.444-0.444-1.161,0-1.604l22.528-22.537c0.23-0.213,0.521-0.324,0.802-0.324
			c0.29,0,0.589,0.111,0.811,0.324l17.297,17.306l84.48,84.471l17.297,17.306C475.913,158.023,475.913,158.749,475.469,159.193z"></path>
	</g>
</g>
</symbol><symbol viewBox="0 0 512 512" id="ei-pipe-t-piece-controller">
<g>
	<g>
		<path d="M472.465,187.733H422.4v-15.932c0-10.044-8.166-18.202-18.202-18.202h-31.863c-10.035,0-18.202,8.158-18.202,18.202
			v24.465H217.6v-59.733h15.932c10.035,0,18.202-8.166,18.202-18.202V86.468c0-10.044-8.166-18.202-18.202-18.202h-36.258
			l8.533-17.067h45.926c14.114,0,25.6-11.486,25.6-25.6S265.847,0,251.733,0h-204.8c-14.114,0-25.6,11.486-25.6,25.6
			s11.486,25.6,25.6,25.6H92.86l8.533,17.067H65.135c-10.035,0-18.202,8.158-18.202,18.202v31.863
			c0,10.035,8.166,18.202,18.202,18.202h15.932v238.933H65.135c-10.035,0-18.202,8.158-18.202,18.202v31.863
			c0,10.035,8.166,18.202,18.202,18.202h15.932v50.065c0,10.035,8.166,18.202,18.202,18.202h100.13
			c10.035,0,18.202-8.166,18.202-18.202v-50.065h15.932c10.035,0,18.202-8.166,18.202-18.202v-31.863
			c0-10.044-8.166-18.202-18.202-18.202H217.6v-59.733h136.533v24.465c0,10.035,8.166,18.202,18.202,18.202h31.863
			c10.035,0,18.202-8.166,18.202-18.202v-15.932h50.065c10.035,0,18.202-8.166,18.202-18.202v-100.13
			C490.667,195.891,482.5,187.733,472.465,187.733z M186.726,51.2l-8.533,17.067h-57.719L111.94,51.2H186.726z M233.532,392.533
			c0.623,0,1.135,0.503,1.135,1.135v31.863c0,0.623-0.512,1.135-1.135,1.135h-24.465H89.6H65.135c-0.623,0-1.135-0.512-1.135-1.135
			v-31.863c0-0.631,0.512-1.135,1.135-1.135H89.6h119.467H233.532z M209.067,119.467H89.6H65.135c-0.623,0-1.135-0.512-1.135-1.135
			V86.468c0-0.631,0.512-1.135,1.135-1.135H115.2h68.267h50.065c0.623,0,1.135,0.503,1.135,1.135v31.863
			c0,0.623-0.512,1.135-1.135,1.135H209.067z M405.333,196.267v119.467v24.465c0,0.623-0.512,1.135-1.135,1.135h-31.863
			c-0.623,0-1.135-0.512-1.135-1.135v-24.465V196.267v-24.465c0-0.631,0.512-1.135,1.135-1.135h31.863
			c0.623,0,1.135,0.503,1.135,1.135V196.267z"></path>
	</g>
</g>
</symbol><symbol viewBox="0 0 512 512" id="ei-pipe-t-piece-corner">
<g>
	<g>
		<path d="M460.8,375.612V264.533c0-37.641-30.626-68.267-68.267-68.267H204.8v-59.733h15.932c10.035,0,18.202-8.166,18.202-18.202
			V86.468c0-10.035-8.166-18.202-18.202-18.202H204.8V18.202C204.8,8.166,196.634,0,186.598,0H86.468
			C76.433,0,68.267,8.166,68.267,18.202v50.065H52.335c-10.035,0-18.202,8.166-18.202,18.202v31.863
			c0,10.035,8.166,18.202,18.202,18.202h15.932v238.933H52.335c-10.035,0-18.202,8.166-18.202,18.202v31.863
			c0,10.035,8.166,18.202,18.202,18.202h15.932v50.065c0,10.035,8.166,18.202,18.202,18.202h100.13
			c10.035,0,18.202-8.166,18.202-18.202v-50.065h15.932c10.035,0,18.202-8.166,18.202-18.202v-31.863
			c0-10.035-8.166-18.202-18.202-18.202H204.8v-59.733h110.933c14.114,0,25.6,11.477,25.6,25.6v34.278
			c-9.523,0.785-17.067,8.704-17.067,18.432v31.113c0,10.24,8.337,18.577,18.577,18.577H459.29c10.24,0,18.577-8.337,18.577-18.577
			v-31.113C477.867,384.316,470.323,376.397,460.8,375.612z M220.732,392.533c0.623,0,1.135,0.503,1.135,1.135v31.863
			c0,0.623-0.512,1.135-1.135,1.135h-24.465H76.8H52.335c-0.623,0-1.135-0.512-1.135-1.135v-31.863c0-0.631,0.512-1.135,1.135-1.135
			H76.8h119.467H220.732z M196.267,119.467H76.8H52.335c-0.623,0-1.135-0.512-1.135-1.135V86.468c0-0.631,0.512-1.135,1.135-1.135
			H76.8h119.467h24.465c0.623,0,1.135,0.503,1.135,1.135v31.863c0,0.623-0.512,1.135-1.135,1.135H196.267z M460.8,425.156
			c0,0.836-0.674,1.51-1.51,1.51H342.844c-0.836,0-1.51-0.674-1.51-1.51v-31.113c0-0.836,0.674-1.51,1.51-1.51H459.29
			c0.836,0,1.51,0.674,1.51,1.51V425.156z"></path>
	</g>
</g>
</symbol><symbol viewBox="0 0 503.607 503.607" id="ei-pipe-t-piece-line">
<g>
	<g>
		<path d="M486.82,239.213h-33.574c-9.258,0-16.787,7.529-16.787,16.787v8.393H318.951V146.885h8.393
			c9.258,0,16.787-7.529,16.787-16.787V96.525c0-9.258-7.529-16.787-16.787-16.787H176.262c-9.258,0-16.787,7.529-16.787,16.787
			v33.574c0,9.258,7.529,16.787,16.787,16.787h8.393v117.508H67.148V256c0-9.258-7.529-16.787-16.787-16.787H16.787
			C7.529,239.213,0,246.742,0,256v151.082c0,9.258,7.529,16.787,16.787,16.787h33.574c9.258,0,16.787-7.529,16.787-16.787v-8.393
			h369.311v8.393c0,9.258,7.529,16.787,16.787,16.787h33.574c9.258,0,16.787-7.529,16.787-16.787V256
			C503.607,246.742,496.078,239.213,486.82,239.213z M50.377,407.082H16.787V256h33.574v16.778v0.008v117.508
			c0,0.025,0.017,0.05,0.017,0.076V407.082z M192.974,130.115h-16.711V96.525h151.082v33.574h-16.779h-0.008H268.59
			c0.008,0,0.017,0.008,0.034,0.008h-0.067c0.017,0,0.025-0.008,0.034-0.008h-75.541
			C193.024,130.098,192.999,130.115,192.974,130.115z M268.59,180.459c-4.642,0-8.393-3.752-8.393-8.393v-25.18h16.787v25.18
			C276.984,176.707,273.232,180.459,268.59,180.459z M276.984,205.639c0,4.633-3.76,8.393-8.393,8.393s-8.393-3.76-8.393-8.393
			s3.76-8.393,8.393-8.393S276.984,201.006,276.984,205.639z M352.525,314.754H268.59c-4.642,0-8.393-3.752-8.393-8.393v-67.148
			c0-4.642,3.752-8.393,8.393-8.393c4.642,0,8.393,3.752,8.393,8.393v58.754h75.541c4.642,0,8.393,3.752,8.393,8.393
			C360.918,311.002,357.166,314.754,352.525,314.754z M436.459,314.754h-33.574c-4.642,0-8.393-3.752-8.393-8.393
			c0-4.642,3.752-8.393,8.393-8.393h33.574V314.754z M453.246,407.082v-16.787v-83.934v-33.574V256h33.574l0.017,151.082H453.246z"></path>
	</g>
</g>
</symbol><symbol viewBox="0 0 512 512" id="ei-pipe-t-piece-ripple">
<g>
	<g>
		<path d="M452.267,213.333c4.719,0,8.533-3.823,8.533-8.533c0-4.71-3.814-8.533-8.533-8.533h-25.6V179.2h25.6
			c4.719,0,8.533-3.823,8.533-8.533s-3.814-8.533-8.533-8.533h-28.442c-3.226-5.112-8.883-8.533-15.36-8.533h-31.863
			c-10.035,0-18.202,8.166-18.202,18.202v24.465H234.82c-7.142,0-12.954-5.811-12.954-12.962v-46.771h15.932
			c10.035,0,18.202-8.166,18.202-18.202V86.468c0-10.035-8.166-18.202-18.202-18.202h-15.932V18.202
			C221.867,8.166,213.7,0,203.665,0h-100.13C93.5,0,85.333,8.166,85.333,18.202v50.065H69.402c-10.035,0-18.202,8.166-18.202,18.202
			v31.863c0,10.035,8.166,18.202,18.202,18.202h15.932v238.933H69.402c-10.035,0-18.202,8.166-18.202,18.202v31.863
			c0,10.035,8.166,18.202,18.202,18.202h15.932v50.065c0,10.035,8.166,18.202,18.202,18.202h100.13
			c10.035,0,18.202-8.166,18.202-18.202v-50.065h15.932c10.035,0,18.202-8.166,18.202-18.202v-31.863
			c0-10.035-8.166-18.202-18.202-18.202h-15.932v-46.771c0-7.151,5.811-12.962,12.954-12.962H358.4v24.465
			c0,10.035,8.166,18.202,18.202,18.202h31.863c6.477,0,12.134-3.422,15.36-8.533h28.442c4.719,0,8.533-3.823,8.533-8.533
			s-3.814-8.533-8.533-8.533h-25.6v-17.067h25.6c4.719,0,8.533-3.823,8.533-8.533s-3.814-8.533-8.533-8.533h-25.6V281.6h25.6
			c4.719,0,8.533-3.823,8.533-8.533s-3.814-8.533-8.533-8.533h-25.6v-17.067h25.6c4.719,0,8.533-3.823,8.533-8.533
			s-3.814-8.533-8.533-8.533h-25.6v-17.067H452.267z M237.798,392.533c0.623,0,1.135,0.512,1.135,1.135v31.863
			c0,0.623-0.512,1.135-1.135,1.135h-24.465H93.867H69.402c-0.631,0-1.135-0.512-1.135-1.135v-31.863
			c0-0.623,0.503-1.135,1.135-1.135h15.932h136.533H237.798z M85.333,119.467H69.402c-0.631,0-1.135-0.512-1.135-1.135V86.468
			c0-0.623,0.503-1.135,1.135-1.135h24.465h119.467h24.465c0.623,0,1.135,0.512,1.135,1.135v31.863c0,0.623-0.512,1.135-1.135,1.135
			h-15.932H85.333z M409.6,340.198c0,0.623-0.512,1.135-1.135,1.135h-31.863c-0.631,0-1.135-0.512-1.135-1.135v-24.465V196.267
			v-24.465c0-0.623,0.503-1.135,1.135-1.135h31.863c0.623,0,1.135,0.512,1.135,1.135V340.198z"></path>
	</g>
</g>
</symbol><symbol viewBox="0 0 512 512" id="ei-pipe-t-piece-van">
<g>
	<g>
		<g>
			<path d="M375.467,290.133c-8.721,0-16.597-3.379-22.639-8.781l-21.743,14.49c10.948,12.177,26.761,19.891,44.382,19.891
				s33.434-7.714,44.382-19.891l-21.743-14.49C392.064,286.754,384.188,290.133,375.467,290.133z"></path>
			<path d="M341.333,256c0-15.855,10.923-29.107,25.6-32.922v-26.129c-28.902,4.156-51.2,29.013-51.2,59.051
				c0,9.19,2.142,17.869,5.871,25.651l21.751-14.498C342.136,263.637,341.333,259.925,341.333,256z"></path>
			<path d="M358.4,256c0,9.412,7.654,17.067,17.067,17.067s17.067-7.654,17.067-17.067c0-9.412-7.654-17.067-17.067-17.067
				S358.4,246.588,358.4,256z"></path>
			<path d="M384,196.95v26.129c14.677,3.814,25.6,17.067,25.6,32.922c0,3.925-0.802,7.637-2.022,11.153l21.751,14.498
				c3.729-7.782,5.871-16.461,5.871-25.651C435.2,225.964,412.902,201.106,384,196.95z"></path>
			<path d="M375.467,136.533c-40.491,0-76.279,20.292-97.903,51.2h-89.83v-51.2h15.932c10.035,0,18.202-8.166,18.202-18.202V86.468
				c0-10.035-8.166-18.202-18.202-18.202h-15.932V18.202C187.733,8.166,179.567,0,169.532,0H69.402C59.366,0,51.2,8.166,51.2,18.202
				v50.065H35.268c-10.035,0-18.202,8.166-18.202,18.202v31.863c0,10.035,8.166,18.202,18.202,18.202H51.2v238.933H35.268
				c-10.035,0-18.202,8.166-18.202,18.202v31.863c0,10.035,8.166,18.202,18.202,18.202H51.2v50.065
				C51.2,503.834,59.366,512,69.402,512h100.13c10.035,0,18.202-8.166,18.202-18.202v-50.065h15.932
				c10.035,0,18.202-8.166,18.202-18.202v-31.863c0-10.035-8.166-18.202-18.202-18.202h-15.932v-51.2h89.83
				c21.623,30.908,57.412,51.2,97.903,51.2c65.877,0,119.467-53.589,119.467-119.467S441.344,136.533,375.467,136.533z
				 M203.665,392.533c0.623,0,1.135,0.512,1.135,1.135v31.863c0,0.623-0.512,1.135-1.135,1.135H179.2H59.733H35.268
				c-0.623,0-1.135-0.512-1.135-1.135v-31.863c0-0.623,0.512-1.135,1.135-1.135h24.465H179.2H203.665z M179.2,119.467H59.733H35.268
				c-0.623,0-1.135-0.512-1.135-1.135V86.468c0-0.623,0.512-1.135,1.135-1.135h24.465H179.2h24.465c0.623,0,1.135,0.512,1.135,1.135
				v31.863c0,0.623-0.512,1.135-1.135,1.135H179.2z M375.467,332.8c-42.342,0-76.8-34.458-76.8-76.8s34.458-76.8,76.8-76.8
				s76.8,34.458,76.8,76.8S417.809,332.8,375.467,332.8z"></path>
		</g>
	</g>
</g>
</symbol><symbol viewBox="0 0 512 512" id="ei-pipe-t-piece">
<g>
	<g>
		<path d="M493.798,34.133h-50.065V18.202C443.733,8.166,435.567,0,425.532,0h-31.863c-10.035,0-18.202,8.166-18.202,18.202v15.932
			H136.533V18.202C136.533,8.166,128.367,0,118.332,0H86.468C76.433,0,68.267,8.166,68.267,18.202v15.932H18.202
			C8.166,34.133,0,42.3,0,52.335v100.13c0,10.035,8.166,18.202,18.202,18.202h50.065v15.932c0,10.035,8.166,18.202,18.202,18.202
			h31.863c10.035,0,18.202-8.166,18.202-18.202v-15.932h51.2v204.8h-15.932c-10.035,0-18.202,8.166-18.202,18.202v31.863
			c0,10.035,8.166,18.202,18.202,18.202h15.932v50.065c0,10.035,8.166,18.202,18.202,18.202h100.13
			c10.035,0,18.202-8.166,18.202-18.202v-50.065h15.932c10.035,0,18.202-8.166,18.202-18.202v-31.863
			c0-10.035-8.166-18.202-18.202-18.202h-15.932v-204.8h51.2v15.932c0,10.035,8.166,18.202,18.202,18.202h31.863
			c10.035,0,18.202-8.166,18.202-18.202v-15.932h50.065c10.035,0,18.202-8.166,18.202-18.202V52.335
			C512,42.3,503.834,34.133,493.798,34.133z M119.467,42.667v119.467v24.465c0,0.623-0.512,1.135-1.135,1.135H86.468
			c-0.623,0-1.135-0.512-1.135-1.135v-24.465V42.667V18.202c0-0.631,0.512-1.135,1.135-1.135h31.863
			c0.623,0,1.135,0.503,1.135,1.135V42.667z M340.198,392.533c0.623,0,1.135,0.503,1.135,1.135v31.863
			c0,0.623-0.512,1.135-1.135,1.135h-24.465H196.267h-24.465c-0.623,0-1.135-0.512-1.135-1.135v-31.863
			c0-0.631,0.512-1.135,1.135-1.135h24.465h119.467H340.198z M426.667,42.667v119.467v24.465c0,0.623-0.512,1.135-1.135,1.135
			h-31.863c-0.623,0-1.135-0.512-1.135-1.135v-24.465V42.667V18.202c0-0.631,0.512-1.135,1.135-1.135h31.863
			c0.623,0,1.135,0.503,1.135,1.135V42.667z"></path>
	</g>
</g>
</symbol><symbol viewBox="0 0 512 512" id="ei-pipe-t-piece2">
<g>
	<g>
		<path d="M459.665,187.733H409.6v-15.932c0-10.044-8.166-18.202-18.202-18.202h-31.863c-10.035,0-18.202,8.158-18.202,18.202
			v24.465H204.8v-59.733h15.932c10.035,0,18.202-8.166,18.202-18.202V86.468c0-10.044-8.166-18.202-18.202-18.202H204.8V18.202
			C204.8,8.158,196.634,0,186.598,0H86.468C76.433,0,68.267,8.158,68.267,18.202v50.065H52.335
			c-10.035,0-18.202,8.158-18.202,18.202v31.863c0,10.035,8.166,18.202,18.202,18.202h15.932v238.933H52.335
			c-10.035,0-18.202,8.158-18.202,18.202v31.863c0,10.035,8.166,18.202,18.202,18.202h15.932v50.065
			c0,10.035,8.166,18.202,18.202,18.202h100.13c10.035,0,18.202-8.166,18.202-18.202v-50.065h15.932
			c10.035,0,18.202-8.166,18.202-18.202v-31.863c0-10.044-8.166-18.202-18.202-18.202H204.8v-59.733h136.533v24.465
			c0,10.035,8.166,18.202,18.202,18.202h31.863c10.035,0,18.202-8.166,18.202-18.202v-15.932h50.065
			c10.035,0,18.202-8.166,18.202-18.202v-100.13C477.867,195.891,469.7,187.733,459.665,187.733z M220.732,392.533
			c0.623,0,1.135,0.503,1.135,1.135v31.863c0,0.623-0.512,1.135-1.135,1.135h-24.465H76.8H52.335c-0.623,0-1.135-0.512-1.135-1.135
			v-31.863c0-0.631,0.512-1.135,1.135-1.135H76.8h119.467H220.732z M196.267,119.467H76.8H52.335c-0.623,0-1.135-0.512-1.135-1.135
			V86.468c0-0.631,0.512-1.135,1.135-1.135H76.8h119.467h24.465c0.623,0,1.135,0.503,1.135,1.135v31.863
			c0,0.623-0.512,1.135-1.135,1.135H196.267z M392.533,196.267v119.467v24.465c0,0.623-0.512,1.135-1.135,1.135h-31.863
			c-0.623,0-1.135-0.512-1.135-1.135v-24.465V196.267v-24.465c0-0.631,0.512-1.135,1.135-1.135h31.863
			c0.623,0,1.135,0.503,1.135,1.135V196.267z"></path>
	</g>
</g>
</symbol><symbol viewBox="0 0 512 512" id="ei-pipe-two-t-piece">
<g>
	<g>
		<path d="M493.798,0h-31.863c-10.035,0-18.202,8.166-18.202,18.202V25.6H68.267v-7.398C68.267,8.166,60.1,0,50.065,0H18.202
			C8.166,0,0,8.166,0,18.202v151.33c0,10.035,8.166,18.202,18.202,18.202h31.863c10.035,0,18.202-8.166,18.202-18.202v-7.398h17.067
			v213.333h-7.398c-10.035,0-18.202,8.166-18.202,18.202v31.863c0,10.035,8.166,18.202,18.202,18.202h7.398v50.065
			c0,10.035,8.166,18.202,18.202,18.202h100.13c10.035,0,18.202-8.166,18.202-18.202v-50.065h7.398
			c10.035,0,18.202-8.166,18.202-18.202v-31.863c0-10.035-8.166-18.202-18.202-18.202h-7.398V162.133h68.267v213.333h-7.398
			c-10.035,0-18.202,8.166-18.202,18.202v31.863c0,10.035,8.166,18.202,18.202,18.202h7.398v50.065
			c0,10.035,8.166,18.202,18.202,18.202h100.13c10.035,0,18.202-8.166,18.202-18.202v-50.065h7.398
			c10.035,0,18.202-8.166,18.202-18.202v-31.863c0-10.035-8.166-18.202-18.202-18.202h-7.398V162.133h17.067v7.398
			c0,10.035,8.166,18.202,18.202,18.202h31.863c10.035,0,18.202-8.166,18.202-18.202V18.202C512,8.166,503.834,0,493.798,0z
			 M51.2,34.133V153.6v15.932c0,0.623-0.512,1.135-1.135,1.135H18.202c-0.623,0-1.135-0.512-1.135-1.135V18.202
			c0-0.631,0.512-1.135,1.135-1.135h31.863c0.623,0,1.135,0.503,1.135,1.135V34.133z M229.265,392.533
			c0.623,0,1.135,0.503,1.135,1.135v31.863c0,0.623-0.512,1.135-1.135,1.135h-15.932H93.867H77.935
			c-0.623,0-1.135-0.512-1.135-1.135v-31.863c0-0.631,0.512-1.135,1.135-1.135h15.932h119.467H229.265z M434.065,392.533
			c0.623,0,1.135,0.503,1.135,1.135v31.863c0,0.623-0.512,1.135-1.135,1.135h-15.932H298.667h-15.932
			c-0.623,0-1.135-0.512-1.135-1.135v-31.863c0-0.631,0.512-1.135,1.135-1.135h15.932h119.467H434.065z M494.933,169.532
			c0,0.623-0.512,1.135-1.135,1.135h-31.863c-0.623,0-1.135-0.512-1.135-1.135V153.6V34.133V18.202c0-0.631,0.512-1.135,1.135-1.135
			h31.863c0.623,0,1.135,0.503,1.135,1.135V169.532z"></path>
	</g>
</g>
</symbol><symbol viewBox="0 0 512 512" id="ei-pipe">
<g>
	<g>
		<path d="M340.198,136.533c10.035,0,18.202-8.166,18.202-18.202V86.468c0-10.035-8.166-18.202-18.202-18.202h-15.932V18.202
			C324.267,8.166,316.1,0,306.065,0h-100.13c-10.044,0-18.202,8.166-18.202,18.202v50.065h-15.932
			c-10.044,0-18.202,8.166-18.202,18.202v31.863c0,10.035,8.158,18.202,18.202,18.202h15.932v238.933h-15.932
			c-10.044,0-18.202,8.166-18.202,18.202v31.863c0,10.035,8.158,18.202,18.202,18.202h15.932v50.065
			c0,10.035,8.158,18.202,18.202,18.202h100.13c10.035,0,18.202-8.166,18.202-18.202v-50.065h15.932
			c10.035,0,18.202-8.166,18.202-18.202v-31.863c0-10.035-8.166-18.202-18.202-18.202h-15.932V136.533H340.198z M340.198,392.533
			c0.623,0,1.135,0.512,1.135,1.135v31.863c0,0.623-0.512,1.135-1.135,1.135h-15.932H187.733h-15.932
			c-0.631,0-1.135-0.512-1.135-1.135v-31.863c0-0.623,0.503-1.135,1.135-1.135h15.932h136.533H340.198z M187.733,119.467h-15.932
			c-0.631,0-1.135-0.512-1.135-1.135V86.468c0-0.623,0.503-1.135,1.135-1.135h15.932h136.533h15.932
			c0.623,0,1.135,0.512,1.135,1.135v31.863c0,0.623-0.512,1.135-1.135,1.135h-15.932H187.733z"></path>
	</g>
</g>
</symbol><symbol viewBox="0 0 512 512" id="ei-pipes-t-piece-rounded">
<g>
	<g>
		<path d="M469.803,51.2H460.8V16.597C460.8,7.441,453.35,0,444.203,0h-86.263c-9.156,0-16.606,7.441-16.606,16.597V51.2h-8.994
			c-9.156,0-16.606,7.441-16.606,16.597v35.063c0,9.156,7.45,16.606,16.606,16.606h7.347c-8.098,43.742-46.925,76.8-92.22,76.8
			h-51.2v-59.733h15.94c10.035,0,18.193-8.166,18.193-18.202V86.46c0-10.035-8.158-18.193-18.193-18.193h-15.94V18.193
			C196.267,8.158,188.109,0,178.074,0H77.935C67.9,0,59.733,8.158,59.733,18.193v50.074H43.802
			c-10.035,0-18.202,8.158-18.202,18.193v31.872c0,10.035,8.166,18.202,18.202,18.202h15.932v238.933H43.802
			c-10.035,0-18.202,8.158-18.202,18.193v31.872c0,10.035,8.166,18.202,18.202,18.202h15.932v50.065
			C59.733,503.834,67.9,512,77.935,512h100.139c10.035,0,18.193-8.166,18.193-18.202v-50.065h15.94
			c10.035,0,18.193-8.166,18.193-18.202V393.66c0-10.035-8.158-18.193-18.193-18.193h-15.94v-59.733h51.2
			c112.068,0,203.887-85.572,212.582-196.267h9.754c9.148,0,16.597-7.45,16.597-16.606V67.797
			C486.4,58.641,478.95,51.2,469.803,51.2z M212.207,392.533c0.623,0,1.126,0.503,1.126,1.126v31.872
			c0,0.623-0.503,1.135-1.126,1.135h-24.474H68.267H43.802c-0.623,0-1.135-0.512-1.135-1.135V393.66
			c0-0.623,0.512-1.126,1.135-1.126h24.465h119.467H212.207z M187.733,119.467H68.267H43.802c-0.623,0-1.135-0.512-1.135-1.135
			V86.46c0-0.623,0.512-1.126,1.135-1.126h24.465h119.467h24.474c0.623,0,1.126,0.503,1.126,1.126v31.872
			c0,0.623-0.503,1.135-1.126,1.135H187.733z M460.945,102.426V102.4H341.581l-0.034,0.435l-8.747,0.026V68.267l8.533-0.034v0.034
			H460.8v-0.444l8.533-0.026l0.469,34.603L460.945,102.426z"></path>
	</g>
</g>
</symbol><symbol viewBox="0 0 512 512" id="ei-two-pipe-controller">
<g>
	<g>
		<g>
			<path d="M493.798,170.667h-31.863c-10.035,0-18.202,8.166-18.202,18.202v7.398H330.18l-17.664-47.121
				c15.642-13.867,26.197-33.348,28.382-55.279h-25.165c-4.719,0-8.533-3.814-8.533-8.533s3.814-8.533,8.533-8.533h25.165
				C336.597,33.741,300.169,0,256,0s-80.597,33.741-84.898,76.8h25.165c4.719,0,8.533,3.814,8.533,8.533s-3.814,8.533-8.533,8.533
				h-25.165c2.185,21.931,12.74,41.412,28.382,55.279l-17.664,47.121H68.267v-7.398c0-10.035-8.166-18.202-18.202-18.202H18.202
				C8.166,170.667,0,178.833,0,188.868v151.33C0,350.234,8.166,358.4,18.202,358.4h31.863c10.035,0,18.202-8.166,18.202-18.202
				V332.8h17.067v59.733h-7.398c-10.035,0-18.202,8.166-18.202,18.202v31.863c0,10.035,8.166,18.202,18.202,18.202h7.398v32.998
				c0,10.035,8.166,18.202,18.202,18.202h100.13c10.035,0,18.202-8.166,18.202-18.202V460.8h7.398
				c10.035,0,18.202-8.166,18.202-18.202v-31.863c0-10.035-8.166-18.202-18.202-18.202h-7.398V332.8h68.267v59.733h-7.398
				c-10.035,0-18.202,8.166-18.202,18.202v31.863c0,10.035,8.166,18.202,18.202,18.202h7.398v32.998
				c0,10.035,8.166,18.202,18.202,18.202h100.13c10.035,0,18.202-8.166,18.202-18.202V460.8h7.398
				c10.035,0,18.202-8.166,18.202-18.202v-31.863c0-10.035-8.166-18.202-18.202-18.202h-7.398V332.8h17.067v7.398
				c0,10.035,8.166,18.202,18.202,18.202h31.863c10.035,0,18.202-8.166,18.202-18.202v-151.33
				C512,178.833,503.834,170.667,493.798,170.667z M51.2,204.8v119.467v15.932c0,0.623-0.512,1.135-1.135,1.135H18.202
				c-0.623,0-1.135-0.512-1.135-1.135v-151.33c0-0.631,0.512-1.135,1.135-1.135h31.863c0.623,0,1.135,0.503,1.135,1.135V204.8z
				 M247.467,61.303V51.2c0-4.719,3.814-8.533,8.533-8.533s8.533,3.814,8.533,8.533v10.103c9.907,3.533,17.067,12.919,17.067,24.03
				c0,14.114-11.486,25.6-25.6,25.6s-25.6-11.486-25.6-25.6C230.4,74.223,237.56,64.836,247.467,61.303z M264.533,145.067v7.996
				c-5.683,0.486-11.383,0.486-17.067,0v-7.996c0-4.719,3.814-8.533,8.533-8.533S264.533,140.348,264.533,145.067z M229.265,409.6
				c0.623,0,1.135,0.504,1.135,1.135v31.863c0,0.623-0.512,1.135-1.135,1.135h-15.932H93.867H77.935
				c-0.623,0-1.135-0.512-1.135-1.135v-31.863c0-0.631,0.512-1.135,1.135-1.135h15.932h119.467H229.265z M200.047,196.267
				l12.681-33.809c11.213,4.412,22.98,6.938,34.85,7.782c2.773,0.273,5.581,0.427,8.422,0.427c-0.077,0-0.145-0.043-0.213-0.043
				h0.427c-0.068,0-0.136,0.043-0.213,0.043c2.842,0,5.649-0.154,8.422-0.427c11.87-0.845,23.637-3.371,34.85-7.782l12.681,33.809
				H200.047z M434.065,409.6c0.623,0,1.135,0.504,1.135,1.135v31.863c0,0.623-0.512,1.135-1.135,1.135h-15.932H298.667h-15.932
				c-0.623,0-1.135-0.512-1.135-1.135v-31.863c0-0.631,0.512-1.135,1.135-1.135h15.932h119.467H434.065z M494.933,340.198
				c0,0.623-0.512,1.135-1.135,1.135h-31.863c-0.623,0-1.135-0.512-1.135-1.135v-15.932V204.8v-15.932
				c0-0.631,0.512-1.135,1.135-1.135h31.863c0.623,0,1.135,0.503,1.135,1.135V340.198z"></path>
			<circle cx="256" cy="85.332" r="8.533"></circle>
		</g>
	</g>
</g>
</symbol></svg>